<svg width="239" height="172" viewBox="0 0 239 172" fill="none" xmlns="http://www.w3.org/2000/svg">
<path d="M83.3721 46.6857C83.3721 42.6146 79.6394 39.3143 75.0349 39.3143C70.4304 39.3143 66.6977 42.6146 66.6977 46.6857H83.3721ZM66.6977 86C66.6977 90.071 70.4304 93.3714 75.0349 93.3714C79.6394 93.3714 83.3721 90.071 83.3721 86H66.6977ZM97.2674 73.7143C101.872 73.7143 105.605 70.4138 105.605 66.3429C105.605 62.2719 101.872 58.9714 97.2674 58.9714V73.7143ZM52.8023 58.9714C48.1978 58.9714 44.4651 62.2719 44.4651 66.3429C44.4651 70.4138 48.1978 73.7143 52.8023 73.7143V58.9714ZM77.8139 144.971C77.8139 151.757 71.5928 157.257 63.9186 157.257V172C80.8018 172 94.4884 159.899 94.4884 144.971H77.8139ZM63.9186 157.257C56.2444 157.257 50.0233 151.757 50.0233 144.971H33.3488C33.3488 159.899 47.0354 172 63.9186 172V157.257ZM50.0233 144.971C50.0233 138.186 56.2444 132.686 63.9186 132.686V117.943C47.0354 117.943 33.3488 130.044 33.3488 144.971H50.0233ZM63.9186 132.686C71.5928 132.686 77.8139 138.186 77.8139 144.971H94.4884C94.4884 130.044 80.8018 117.943 63.9186 117.943V132.686ZM188.977 144.971C188.977 151.757 182.756 157.257 175.081 157.257V172C191.965 172 205.651 159.899 205.651 144.971H188.977ZM175.081 157.257C167.407 157.257 161.186 151.757 161.186 144.971H144.512C144.512 159.899 158.198 172 175.081 172V157.257ZM161.186 144.971C161.186 138.186 167.407 132.686 175.081 132.686V117.943C158.198 117.943 144.512 130.044 144.512 144.971H161.186ZM175.081 132.686C182.756 132.686 188.977 138.186 188.977 144.971H205.651C205.651 130.044 191.965 117.943 175.081 117.943V132.686ZM66.6977 46.6857V66.3429H83.3721V46.6857H66.6977ZM66.6977 66.3429V86H83.3721V66.3429H66.6977ZM97.2674 58.9714H75.0349V73.7143H97.2674V58.9714ZM75.0349 58.9714H52.8023V73.7143H75.0349V58.9714ZM16.6744 125.314V27.0287H0V125.314H16.6744ZM30.5698 14.743L144.625 14.7429V0L30.5698 9.84192e-05V14.743ZM41.686 137.6H30.5698V152.343H41.686V137.6ZM208.43 137.6H197.314V152.343H208.43V137.6ZM222.326 75.3842V125.314H239V75.3842H222.326ZM153.667 17.7006L217.473 66.0559L228.325 54.8622L164.519 6.50691L153.667 17.7006ZM239 75.3842C239 67.4938 235.1 59.9975 228.325 54.8622L217.473 66.0559C220.553 68.3902 222.326 71.7977 222.326 75.3842H239ZM0 125.314C0 140.242 13.6866 152.343 30.5698 152.343V137.6C22.8955 137.6 16.6744 132.1 16.6744 125.314H0ZM208.43 152.343C225.314 152.343 239 140.242 239 125.314H222.326C222.326 132.1 216.105 137.6 208.43 137.6V152.343ZM144.625 14.7429C147.941 14.7429 151.149 15.792 153.667 17.7006L164.519 6.50691C158.978 2.30805 151.922 0 144.625 0V14.7429ZM16.6744 27.0287C16.6744 20.2434 22.8955 14.743 30.5698 14.743V9.84192e-05C13.6866 9.84192e-05 0 12.1011 0 27.0287H16.6744ZM152.849 137.6H86.1512V152.343H152.849V137.6Z" fill="#FFF7DF"/>
</svg>
