<svg width="571" height="86" viewBox="0 0 571 86" fill="none" xmlns="http://www.w3.org/2000/svg">
<path d="M77.4401 52.992H73.3441L70.0161 84.48H57.0881L56.4481 76.288C53.8027 79.1893 50.5601 81.4933 46.7201 83.2C42.9654 84.9067 38.5281 85.76 33.4081 85.76C22.9121 85.76 14.7201 82.2187 8.83206 75.136C2.94406 68.0533 5.81741e-05 58.9227 5.81741e-05 47.744C5.81741e-05 39.4667 1.70672 31.7013 5.12006 24.448C8.53339 17.1947 13.6107 11.3067 20.3521 6.784C27.0934 2.26133 35.4987 0 45.5681 0C52.1387 0 58.1121 0.981333 63.4881 2.944C68.9494 4.90667 72.8747 7.25333 75.2641 9.984L75.6481 28.032L61.9521 29.312L60.6721 19.584C58.7947 18.1333 56.1921 17.024 52.8641 16.256C49.5361 15.488 46.5067 15.104 43.7761 15.104C36.2667 15.104 30.0801 17.8347 25.2161 23.296C20.3521 28.7573 17.9201 36.4373 17.9201 46.336C17.9201 54.8693 19.7547 61.056 23.4241 64.896C27.0934 68.736 31.9147 70.656 37.8881 70.656C48.3841 70.656 54.5707 65.024 56.4481 53.76L56.5761 52.992H40.5761L42.1121 38.528H78.9761L77.4401 52.992ZM85.0571 69.888H92.3531L120.769 15.872H109.761L111.297 1.28H138.689L160.321 69.888H167.873L166.337 84.48H134.593L136.129 69.888H142.529L140.353 61.44H113.217L109.121 69.888H116.545L115.009 84.48H83.5211L85.0571 69.888ZM130.625 25.728L119.233 49.152H137.281L131.393 25.728H130.625ZM238.293 84.48H177.493L179.029 69.888H187.861L193.493 15.872H184.661L186.197 1.28H223.189L221.653 15.872H210.005L204.373 69.888H226.005L230.101 53.76L243.925 55.04L238.293 84.48ZM313.193 84.48H252.393L253.929 69.888H262.761L268.393 15.872H259.561L261.097 1.28H298.089L296.553 15.872H284.905L279.273 69.888H300.905L305.001 53.76L318.825 55.04L313.193 84.48ZM390.013 84.48H327.421L328.957 69.888H337.789L343.421 15.872H334.589L336.125 1.28H397.949V25.6L383.869 26.88L382.589 15.872H359.805L357.757 35.456H392.573L391.037 49.92H356.221L354.173 69.888H377.597L381.309 58.88L395.133 60.16L390.013 84.48ZM408.36 69.888H416.936L422.568 15.872H413.992L415.528 1.28H451.624C470.568 1.28 480.04 8.96 480.04 24.32C480.04 30.72 478.376 35.84 475.048 39.68C471.805 43.4347 467.411 46.2507 461.864 48.128L470.824 69.888H480.552L479.016 84.48H458.536L445.992 52.736H435.24L433.448 69.888H442.024L440.488 84.48H406.824L408.36 69.888ZM444.456 39.168C451.368 39.168 456.061 37.9733 458.536 35.584C461.011 33.1093 462.248 29.8667 462.248 25.856C462.248 22.016 461.181 19.4133 459.048 18.048C456.915 16.5973 452.947 15.872 447.144 15.872H439.08L436.648 39.168H444.456ZM569.111 15.872H562.199L535.191 51.968L533.399 69.888H546.327L544.791 84.48H503.063L504.599 69.888H516.887L518.679 51.712L498.455 15.872H491.415L492.951 1.28H525.975L524.439 15.872H517.783L529.047 36.864H529.815L545.175 15.872H537.623L539.159 1.28H570.647L569.111 15.872Z" fill="#5D5947"/>
</svg>
