<svg width="559" height="93" viewBox="0 0 559 93" fill="none" xmlns="http://www.w3.org/2000/svg">
<mask id="path-1-outside-1_133_61" maskUnits="userSpaceOnUse" x="-0.987549" y="-0.744003" width="560" height="93" fill="black">
<rect fill="white" x="-0.987549" y="-0.744003" width="560" height="93"/>
<path d="M20.2442 30.928H29.0282L29.3162 39.208C30.0842 37 31.1402 34.96 32.4842 33.088C33.8282 31.216 35.4602 30.28 37.3802 30.28C38.7722 30.28 39.9962 30.712 41.0522 31.576L39.8282 39.424C38.5802 38.704 37.3322 38.344 36.0842 38.344C34.4522 38.344 33.0362 38.92 31.8362 40.072C30.6362 41.224 29.7962 42.76 29.3162 44.68L27.5882 57.352H33.9962L33.4202 61.528L31.4762 63.256H14.9162L15.4922 59.08L17.4362 57.352H20.1722L22.6202 36.904H17.7962L18.3002 32.656L20.2442 30.928ZM58.0127 58.072C60.3647 58.072 62.0207 57.424 62.9807 56.128C63.9887 54.832 64.7087 53.56 65.1407 52.312L71.1167 53.536C70.5887 56.32 69.1007 58.768 66.6527 60.88C64.2047 62.944 60.9407 63.976 56.8607 63.976C52.9727 63.976 49.7567 62.824 47.2127 60.52C44.7167 58.168 43.4687 54.544 43.4687 49.648C43.4687 44.368 44.9807 39.832 48.0047 36.04C51.0767 32.2 55.2527 30.28 60.5327 30.28C63.7487 30.28 66.4127 31.072 68.5247 32.656C70.6847 34.192 71.7647 36.256 71.7647 38.848C71.7647 41.248 70.9007 43.288 69.1727 44.968C67.4927 46.648 64.5167 47.944 60.2447 48.856C58.9967 49.144 57.6287 49.408 56.1407 49.648C54.7007 49.84 53.1647 50.032 51.5327 50.224C51.6287 52.72 52.1567 54.664 53.1167 56.056C54.0767 57.4 55.7087 58.072 58.0127 58.072ZM56.5727 44.824C59.7407 44.152 61.7567 43.336 62.6207 42.376C63.5327 41.416 63.9887 40.408 63.9887 39.352C63.9887 38.008 63.5567 37.072 62.6927 36.544C61.8767 35.968 60.8447 35.68 59.5967 35.68C57.1007 35.68 55.2527 36.712 54.0527 38.776C52.8527 40.792 52.0847 43.072 51.7487 45.616C52.6607 45.52 53.5247 45.4 54.3407 45.256C55.1567 45.064 55.9007 44.92 56.5727 44.824ZM96.85 15.448L98.794 13.72H110.962L105.634 57.352H110.242L109.738 61.672L107.794 63.256H98.65V56.272C97.546 58.336 96.058 60.136 94.186 61.672C92.314 63.208 89.986 63.976 87.202 63.976C83.65 63.976 81.01 62.68 79.282 60.088C77.554 57.496 76.69 54.28 76.69 50.44C76.69 47.464 77.218 44.44 78.274 41.368C79.33 38.248 80.986 35.632 83.242 33.52C85.498 31.36 88.402 30.28 91.954 30.28C96.274 30.28 99.25 31.936 100.882 35.248L102.826 19.624H96.346L96.85 15.448ZM93.106 36.256C90.13 36.256 87.97 37.648 86.626 40.432C85.33 43.216 84.682 46.24 84.682 49.504C84.682 52.144 85.114 54.232 85.978 55.768C86.842 57.304 88.21 58.072 90.082 58.072C92.338 58.072 94.306 57.064 95.986 55.048C97.714 52.984 98.794 50.848 99.226 48.64L99.802 43.96C99.85 41.56 99.202 39.688 97.858 38.344C96.514 36.952 94.93 36.256 93.106 36.256ZM129.94 58.072C132.292 58.072 133.948 57.424 134.908 56.128C135.916 54.832 136.636 53.56 137.068 52.312L143.044 53.536C142.516 56.32 141.028 58.768 138.58 60.88C136.132 62.944 132.868 63.976 128.788 63.976C124.9 63.976 121.684 62.824 119.14 60.52C116.644 58.168 115.396 54.544 115.396 49.648C115.396 44.368 116.908 39.832 119.932 36.04C123.004 32.2 127.18 30.28 132.46 30.28C135.676 30.28 138.34 31.072 140.452 32.656C142.612 34.192 143.692 36.256 143.692 38.848C143.692 41.248 142.828 43.288 141.1 44.968C139.42 46.648 136.444 47.944 132.172 48.856C130.924 49.144 129.556 49.408 128.068 49.648C126.628 49.84 125.092 50.032 123.46 50.224C123.556 52.72 124.084 54.664 125.044 56.056C126.004 57.4 127.636 58.072 129.94 58.072ZM128.5 44.824C131.668 44.152 133.684 43.336 134.548 42.376C135.46 41.416 135.916 40.408 135.916 39.352C135.916 38.008 135.484 37.072 134.62 36.544C133.804 35.968 132.772 35.68 131.524 35.68C129.028 35.68 127.18 36.712 125.98 38.776C124.78 40.792 124.012 43.072 123.676 45.616C124.588 45.52 125.452 45.4 126.268 45.256C127.084 45.064 127.828 44.92 128.5 44.824ZM181.305 30.928L178.065 57.352H182.673L182.097 61.672L180.225 63.256H169.929L173.169 36.904H161.361L157.833 65.92C157.401 69.328 156.345 72.4 154.665 75.136C153.033 77.872 150.105 79.24 145.881 79.24C143.001 79.24 140.625 78.448 138.753 76.864C136.881 75.28 135.969 72.712 136.017 69.16L141.849 67.432C141.801 69.928 142.233 71.536 143.145 72.256C144.009 72.976 144.825 73.336 145.593 73.336C147.177 73.336 148.305 72.544 148.977 70.96C149.697 69.376 150.177 67.648 150.417 65.776L153.945 36.904H148.185L148.545 32.872L150.705 30.928H154.665L155.313 25.672C155.745 22.168 157.113 19.192 159.417 16.744C161.769 14.248 165.345 13 170.145 13C171.729 13 173.529 13.192 175.545 13.576C177.609 13.96 179.505 14.656 181.233 15.664L181.737 24.232L175.761 24.88L174.897 19.768C174.417 19.576 173.793 19.384 173.025 19.192C172.305 18.952 171.393 18.832 170.289 18.832C167.505 18.832 165.609 19.432 164.601 20.632C163.641 21.784 163.041 23.392 162.801 25.456L162.081 30.928H181.305ZM191.185 30.928H200.473L200.689 37.192C201.793 35.08 203.209 33.4 204.937 32.152C206.665 30.904 208.777 30.28 211.273 30.28C214.249 30.28 216.673 31.216 218.545 33.088C220.417 34.96 221.113 37.888 220.633 41.872L218.761 57.352H223.441L222.865 61.672L220.921 63.256H210.697L213.001 44.68C213.385 41.608 213.121 39.448 212.209 38.2C211.297 36.904 209.857 36.256 207.889 36.256C205.537 36.256 203.713 37.096 202.417 38.776C201.121 40.408 200.329 42.4 200.041 44.752V44.68L197.737 63.256H190.393L193.633 36.904H188.665L189.169 32.656L191.185 30.928ZM242.822 58.072C245.174 58.072 246.83 57.424 247.79 56.128C248.798 54.832 249.518 53.56 249.95 52.312L255.926 53.536C255.398 56.32 253.91 58.768 251.462 60.88C249.014 62.944 245.75 63.976 241.67 63.976C237.782 63.976 234.566 62.824 232.022 60.52C229.526 58.168 228.278 54.544 228.278 49.648C228.278 44.368 229.79 39.832 232.814 36.04C235.886 32.2 240.062 30.28 245.342 30.28C248.558 30.28 251.222 31.072 253.334 32.656C255.494 34.192 256.574 36.256 256.574 38.848C256.574 41.248 255.71 43.288 253.982 44.968C252.302 46.648 249.326 47.944 245.054 48.856C243.806 49.144 242.438 49.408 240.95 49.648C239.51 49.84 237.974 50.032 236.342 50.224C236.438 52.72 236.966 54.664 237.926 56.056C238.886 57.4 240.518 58.072 242.822 58.072ZM241.382 44.824C244.55 44.152 246.566 43.336 247.43 42.376C248.342 41.416 248.798 40.408 248.798 39.352C248.798 38.008 248.366 37.072 247.502 36.544C246.686 35.968 245.654 35.68 244.406 35.68C241.91 35.68 240.062 36.712 238.862 38.776C237.662 40.792 236.894 43.072 236.558 45.616C237.47 45.52 238.334 45.4 239.15 45.256C239.966 45.064 240.71 44.92 241.382 44.824ZM285.492 16.456C292.452 16.456 297.684 18.352 301.188 22.144C304.692 25.888 306.444 30.904 306.444 37.192C306.444 44.728 304.14 50.968 299.532 55.912C294.924 60.808 288.756 63.256 281.028 63.256H260.076L260.796 56.416H266.052L269.508 23.296H264.252L264.972 16.456H285.492ZM281.172 56.416C286.596 56.416 290.796 54.784 293.772 51.52C296.748 48.256 298.236 43.72 298.236 37.912C298.236 28.168 293.7 23.296 284.628 23.296H277.068L273.612 56.416H281.172ZM359.512 30.928C358.984 32.752 358.48 34.576 358 36.4C357.568 38.224 357.256 40.048 357.064 41.872L355.12 57.352H359.512L359.008 61.672L357.136 63.256H348.208L348.064 56.704C347.056 58.672 345.688 60.376 343.96 61.816C342.232 63.256 340.024 63.976 337.336 63.976C333.784 63.976 331.096 62.68 329.272 60.088C327.496 57.496 326.608 54.208 326.608 50.224C326.608 47.392 327.112 44.44 328.12 41.368C329.128 38.248 330.712 35.632 332.872 33.52C335.08 31.36 337.984 30.28 341.584 30.28C346.384 30.28 349.48 32.296 350.872 36.328C351.064 35.416 351.28 34.528 351.52 33.664C351.76 32.752 352.048 31.84 352.384 30.928H359.512ZM342.664 36.256C339.688 36.256 337.6 37.672 336.4 40.504C335.2 43.288 334.6 46.216 334.6 49.288C334.6 55.144 336.448 58.072 340.144 58.072C342.352 58.072 344.224 57.088 345.76 55.12C347.296 53.104 348.304 51.016 348.784 48.856L349.36 44.464C349.456 41.92 348.832 39.928 347.488 38.488C346.192 37 344.584 36.256 342.664 36.256ZM365.462 32.872L367.55 30.928H370.358L371.294 23.368L373.67 20.92H378.998L377.774 30.928H387.926L387.35 34.888L385.262 36.904H377.054L375.11 52.96C374.678 56.368 375.614 58.072 377.918 58.072C378.782 58.072 379.622 57.712 380.438 56.992C381.254 56.272 381.998 54.64 382.67 52.096L387.926 53.896C387.014 57.4 385.718 59.968 384.038 61.6C382.406 63.184 380.102 63.976 377.126 63.976C373.862 63.976 371.342 63.064 369.566 61.24C367.838 59.416 367.19 56.872 367.622 53.608L369.638 36.904H364.886L365.462 32.872ZM439.324 16.456H456.46L455.74 23.296H451.492L449.332 43.96C448.996 47.272 448.132 50.464 446.74 53.536C445.396 56.56 443.308 59.056 440.476 61.024C437.644 62.992 433.852 63.976 429.1 63.976C422.284 63.976 417.628 62.032 415.132 58.144C412.636 54.256 411.652 49.792 412.18 44.752L414.412 23.296H410.164L410.884 16.456H428.452L427.732 23.296H422.116L419.884 44.536C419.5 48.232 420.052 51.232 421.54 53.536C423.028 55.792 425.74 56.92 429.676 56.92C433.516 56.92 436.444 55.792 438.46 53.536C440.524 51.232 441.772 48.04 442.204 43.96L444.364 23.296H438.676L439.324 16.456ZM496.459 58.792C494.683 60.376 492.211 61.648 489.043 62.608C485.875 63.52 482.755 63.976 479.683 63.976C473.107 63.976 468.043 61.936 464.491 57.856C460.939 53.776 459.163 48.688 459.163 42.592C459.163 38.32 460.051 34.144 461.827 30.064C463.651 25.936 466.435 22.528 470.179 19.84C473.971 17.104 478.795 15.736 484.651 15.736C488.491 15.736 491.707 16.312 494.299 17.464C496.939 18.568 498.955 19.84 500.347 21.28L500.491 31.432L493.939 32.08L493.507 25.6C490.915 23.728 487.675 22.792 483.787 22.792C478.891 22.792 474.931 24.448 471.907 27.76C468.883 31.072 467.371 35.728 467.371 41.728C467.371 51.856 471.955 56.92 481.123 56.92C484.723 56.92 487.795 56.248 490.339 54.904L492.211 47.92L498.547 48.568L496.459 58.792ZM504.384 56.416H509.568L513.024 23.296H507.84L508.56 16.456H528.432C533.568 16.456 537.456 17.56 540.096 19.768C542.736 21.976 544.056 25.048 544.056 28.984C544.056 32.632 543.096 35.584 541.176 37.84C539.304 40.048 536.688 41.68 533.328 42.736L539.016 56.416H544.56L543.84 63.256H533.256L525.984 44.752H518.496L517.272 56.416H522.6L521.88 63.256H503.664L504.384 56.416ZM525.048 38.344C529.08 38.344 531.864 37.552 533.4 35.968C534.984 34.336 535.776 32.248 535.776 29.704C535.776 27.352 535.056 25.696 533.616 24.736C532.224 23.776 529.824 23.296 526.416 23.296H520.728L519.144 38.344H525.048Z"/>
</mask>
<path d="M20.2442 30.928H29.0282L29.3162 39.208C30.0842 37 31.1402 34.96 32.4842 33.088C33.8282 31.216 35.4602 30.28 37.3802 30.28C38.7722 30.28 39.9962 30.712 41.0522 31.576L39.8282 39.424C38.5802 38.704 37.3322 38.344 36.0842 38.344C34.4522 38.344 33.0362 38.92 31.8362 40.072C30.6362 41.224 29.7962 42.76 29.3162 44.68L27.5882 57.352H33.9962L33.4202 61.528L31.4762 63.256H14.9162L15.4922 59.08L17.4362 57.352H20.1722L22.6202 36.904H17.7962L18.3002 32.656L20.2442 30.928ZM58.0127 58.072C60.3647 58.072 62.0207 57.424 62.9807 56.128C63.9887 54.832 64.7087 53.56 65.1407 52.312L71.1167 53.536C70.5887 56.32 69.1007 58.768 66.6527 60.88C64.2047 62.944 60.9407 63.976 56.8607 63.976C52.9727 63.976 49.7567 62.824 47.2127 60.52C44.7167 58.168 43.4687 54.544 43.4687 49.648C43.4687 44.368 44.9807 39.832 48.0047 36.04C51.0767 32.2 55.2527 30.28 60.5327 30.28C63.7487 30.28 66.4127 31.072 68.5247 32.656C70.6847 34.192 71.7647 36.256 71.7647 38.848C71.7647 41.248 70.9007 43.288 69.1727 44.968C67.4927 46.648 64.5167 47.944 60.2447 48.856C58.9967 49.144 57.6287 49.408 56.1407 49.648C54.7007 49.84 53.1647 50.032 51.5327 50.224C51.6287 52.72 52.1567 54.664 53.1167 56.056C54.0767 57.4 55.7087 58.072 58.0127 58.072ZM56.5727 44.824C59.7407 44.152 61.7567 43.336 62.6207 42.376C63.5327 41.416 63.9887 40.408 63.9887 39.352C63.9887 38.008 63.5567 37.072 62.6927 36.544C61.8767 35.968 60.8447 35.68 59.5967 35.68C57.1007 35.68 55.2527 36.712 54.0527 38.776C52.8527 40.792 52.0847 43.072 51.7487 45.616C52.6607 45.52 53.5247 45.4 54.3407 45.256C55.1567 45.064 55.9007 44.92 56.5727 44.824ZM96.85 15.448L98.794 13.72H110.962L105.634 57.352H110.242L109.738 61.672L107.794 63.256H98.65V56.272C97.546 58.336 96.058 60.136 94.186 61.672C92.314 63.208 89.986 63.976 87.202 63.976C83.65 63.976 81.01 62.68 79.282 60.088C77.554 57.496 76.69 54.28 76.69 50.44C76.69 47.464 77.218 44.44 78.274 41.368C79.33 38.248 80.986 35.632 83.242 33.52C85.498 31.36 88.402 30.28 91.954 30.28C96.274 30.28 99.25 31.936 100.882 35.248L102.826 19.624H96.346L96.85 15.448ZM93.106 36.256C90.13 36.256 87.97 37.648 86.626 40.432C85.33 43.216 84.682 46.24 84.682 49.504C84.682 52.144 85.114 54.232 85.978 55.768C86.842 57.304 88.21 58.072 90.082 58.072C92.338 58.072 94.306 57.064 95.986 55.048C97.714 52.984 98.794 50.848 99.226 48.64L99.802 43.96C99.85 41.56 99.202 39.688 97.858 38.344C96.514 36.952 94.93 36.256 93.106 36.256ZM129.94 58.072C132.292 58.072 133.948 57.424 134.908 56.128C135.916 54.832 136.636 53.56 137.068 52.312L143.044 53.536C142.516 56.32 141.028 58.768 138.58 60.88C136.132 62.944 132.868 63.976 128.788 63.976C124.9 63.976 121.684 62.824 119.14 60.52C116.644 58.168 115.396 54.544 115.396 49.648C115.396 44.368 116.908 39.832 119.932 36.04C123.004 32.2 127.18 30.28 132.46 30.28C135.676 30.28 138.34 31.072 140.452 32.656C142.612 34.192 143.692 36.256 143.692 38.848C143.692 41.248 142.828 43.288 141.1 44.968C139.42 46.648 136.444 47.944 132.172 48.856C130.924 49.144 129.556 49.408 128.068 49.648C126.628 49.84 125.092 50.032 123.46 50.224C123.556 52.72 124.084 54.664 125.044 56.056C126.004 57.4 127.636 58.072 129.94 58.072ZM128.5 44.824C131.668 44.152 133.684 43.336 134.548 42.376C135.46 41.416 135.916 40.408 135.916 39.352C135.916 38.008 135.484 37.072 134.62 36.544C133.804 35.968 132.772 35.68 131.524 35.68C129.028 35.68 127.18 36.712 125.98 38.776C124.78 40.792 124.012 43.072 123.676 45.616C124.588 45.52 125.452 45.4 126.268 45.256C127.084 45.064 127.828 44.92 128.5 44.824ZM181.305 30.928L178.065 57.352H182.673L182.097 61.672L180.225 63.256H169.929L173.169 36.904H161.361L157.833 65.92C157.401 69.328 156.345 72.4 154.665 75.136C153.033 77.872 150.105 79.24 145.881 79.24C143.001 79.24 140.625 78.448 138.753 76.864C136.881 75.28 135.969 72.712 136.017 69.16L141.849 67.432C141.801 69.928 142.233 71.536 143.145 72.256C144.009 72.976 144.825 73.336 145.593 73.336C147.177 73.336 148.305 72.544 148.977 70.96C149.697 69.376 150.177 67.648 150.417 65.776L153.945 36.904H148.185L148.545 32.872L150.705 30.928H154.665L155.313 25.672C155.745 22.168 157.113 19.192 159.417 16.744C161.769 14.248 165.345 13 170.145 13C171.729 13 173.529 13.192 175.545 13.576C177.609 13.96 179.505 14.656 181.233 15.664L181.737 24.232L175.761 24.88L174.897 19.768C174.417 19.576 173.793 19.384 173.025 19.192C172.305 18.952 171.393 18.832 170.289 18.832C167.505 18.832 165.609 19.432 164.601 20.632C163.641 21.784 163.041 23.392 162.801 25.456L162.081 30.928H181.305ZM191.185 30.928H200.473L200.689 37.192C201.793 35.08 203.209 33.4 204.937 32.152C206.665 30.904 208.777 30.28 211.273 30.28C214.249 30.28 216.673 31.216 218.545 33.088C220.417 34.96 221.113 37.888 220.633 41.872L218.761 57.352H223.441L222.865 61.672L220.921 63.256H210.697L213.001 44.68C213.385 41.608 213.121 39.448 212.209 38.2C211.297 36.904 209.857 36.256 207.889 36.256C205.537 36.256 203.713 37.096 202.417 38.776C201.121 40.408 200.329 42.4 200.041 44.752V44.68L197.737 63.256H190.393L193.633 36.904H188.665L189.169 32.656L191.185 30.928ZM242.822 58.072C245.174 58.072 246.83 57.424 247.79 56.128C248.798 54.832 249.518 53.56 249.95 52.312L255.926 53.536C255.398 56.32 253.91 58.768 251.462 60.88C249.014 62.944 245.75 63.976 241.67 63.976C237.782 63.976 234.566 62.824 232.022 60.52C229.526 58.168 228.278 54.544 228.278 49.648C228.278 44.368 229.79 39.832 232.814 36.04C235.886 32.2 240.062 30.28 245.342 30.28C248.558 30.28 251.222 31.072 253.334 32.656C255.494 34.192 256.574 36.256 256.574 38.848C256.574 41.248 255.71 43.288 253.982 44.968C252.302 46.648 249.326 47.944 245.054 48.856C243.806 49.144 242.438 49.408 240.95 49.648C239.51 49.84 237.974 50.032 236.342 50.224C236.438 52.72 236.966 54.664 237.926 56.056C238.886 57.4 240.518 58.072 242.822 58.072ZM241.382 44.824C244.55 44.152 246.566 43.336 247.43 42.376C248.342 41.416 248.798 40.408 248.798 39.352C248.798 38.008 248.366 37.072 247.502 36.544C246.686 35.968 245.654 35.68 244.406 35.68C241.91 35.68 240.062 36.712 238.862 38.776C237.662 40.792 236.894 43.072 236.558 45.616C237.47 45.52 238.334 45.4 239.15 45.256C239.966 45.064 240.71 44.92 241.382 44.824ZM285.492 16.456C292.452 16.456 297.684 18.352 301.188 22.144C304.692 25.888 306.444 30.904 306.444 37.192C306.444 44.728 304.14 50.968 299.532 55.912C294.924 60.808 288.756 63.256 281.028 63.256H260.076L260.796 56.416H266.052L269.508 23.296H264.252L264.972 16.456H285.492ZM281.172 56.416C286.596 56.416 290.796 54.784 293.772 51.52C296.748 48.256 298.236 43.72 298.236 37.912C298.236 28.168 293.7 23.296 284.628 23.296H277.068L273.612 56.416H281.172ZM359.512 30.928C358.984 32.752 358.48 34.576 358 36.4C357.568 38.224 357.256 40.048 357.064 41.872L355.12 57.352H359.512L359.008 61.672L357.136 63.256H348.208L348.064 56.704C347.056 58.672 345.688 60.376 343.96 61.816C342.232 63.256 340.024 63.976 337.336 63.976C333.784 63.976 331.096 62.68 329.272 60.088C327.496 57.496 326.608 54.208 326.608 50.224C326.608 47.392 327.112 44.44 328.12 41.368C329.128 38.248 330.712 35.632 332.872 33.52C335.08 31.36 337.984 30.28 341.584 30.28C346.384 30.28 349.48 32.296 350.872 36.328C351.064 35.416 351.28 34.528 351.52 33.664C351.76 32.752 352.048 31.84 352.384 30.928H359.512ZM342.664 36.256C339.688 36.256 337.6 37.672 336.4 40.504C335.2 43.288 334.6 46.216 334.6 49.288C334.6 55.144 336.448 58.072 340.144 58.072C342.352 58.072 344.224 57.088 345.76 55.12C347.296 53.104 348.304 51.016 348.784 48.856L349.36 44.464C349.456 41.92 348.832 39.928 347.488 38.488C346.192 37 344.584 36.256 342.664 36.256ZM365.462 32.872L367.55 30.928H370.358L371.294 23.368L373.67 20.92H378.998L377.774 30.928H387.926L387.35 34.888L385.262 36.904H377.054L375.11 52.96C374.678 56.368 375.614 58.072 377.918 58.072C378.782 58.072 379.622 57.712 380.438 56.992C381.254 56.272 381.998 54.64 382.67 52.096L387.926 53.896C387.014 57.4 385.718 59.968 384.038 61.6C382.406 63.184 380.102 63.976 377.126 63.976C373.862 63.976 371.342 63.064 369.566 61.24C367.838 59.416 367.19 56.872 367.622 53.608L369.638 36.904H364.886L365.462 32.872ZM439.324 16.456H456.46L455.74 23.296H451.492L449.332 43.96C448.996 47.272 448.132 50.464 446.74 53.536C445.396 56.56 443.308 59.056 440.476 61.024C437.644 62.992 433.852 63.976 429.1 63.976C422.284 63.976 417.628 62.032 415.132 58.144C412.636 54.256 411.652 49.792 412.18 44.752L414.412 23.296H410.164L410.884 16.456H428.452L427.732 23.296H422.116L419.884 44.536C419.5 48.232 420.052 51.232 421.54 53.536C423.028 55.792 425.74 56.92 429.676 56.92C433.516 56.92 436.444 55.792 438.46 53.536C440.524 51.232 441.772 48.04 442.204 43.96L444.364 23.296H438.676L439.324 16.456ZM496.459 58.792C494.683 60.376 492.211 61.648 489.043 62.608C485.875 63.52 482.755 63.976 479.683 63.976C473.107 63.976 468.043 61.936 464.491 57.856C460.939 53.776 459.163 48.688 459.163 42.592C459.163 38.32 460.051 34.144 461.827 30.064C463.651 25.936 466.435 22.528 470.179 19.84C473.971 17.104 478.795 15.736 484.651 15.736C488.491 15.736 491.707 16.312 494.299 17.464C496.939 18.568 498.955 19.84 500.347 21.28L500.491 31.432L493.939 32.08L493.507 25.6C490.915 23.728 487.675 22.792 483.787 22.792C478.891 22.792 474.931 24.448 471.907 27.76C468.883 31.072 467.371 35.728 467.371 41.728C467.371 51.856 471.955 56.92 481.123 56.92C484.723 56.92 487.795 56.248 490.339 54.904L492.211 47.92L498.547 48.568L496.459 58.792ZM504.384 56.416H509.568L513.024 23.296H507.84L508.56 16.456H528.432C533.568 16.456 537.456 17.56 540.096 19.768C542.736 21.976 544.056 25.048 544.056 28.984C544.056 32.632 543.096 35.584 541.176 37.84C539.304 40.048 536.688 41.68 533.328 42.736L539.016 56.416H544.56L543.84 63.256H533.256L525.984 44.752H518.496L517.272 56.416H522.6L521.88 63.256H503.664L504.384 56.416ZM525.048 38.344C529.08 38.344 531.864 37.552 533.4 35.968C534.984 34.336 535.776 32.248 535.776 29.704C535.776 27.352 535.056 25.696 533.616 24.736C532.224 23.776 529.824 23.296 526.416 23.296H520.728L519.144 38.344H525.048Z" fill="#9E4325"/>
<path d="M20.2442 30.928V17.928H15.3016L11.6075 21.2117L20.2442 30.928ZM29.0282 30.928L42.0204 30.4761L41.5839 17.928H29.0282V30.928ZM29.3162 39.208L16.3241 39.6599L41.5947 43.4788L29.3162 39.208ZM32.4842 33.088L21.924 25.5063V25.5063L32.4842 33.088ZM41.0522 31.576L53.8969 33.5793L55.0437 26.2268L49.2843 21.5146L41.0522 31.576ZM39.8282 39.424L33.3318 50.6844L49.7517 60.1574L52.6729 41.4273L39.8282 39.424ZM31.8362 40.072L22.8333 30.694L22.8333 30.694L31.8362 40.072ZM29.3162 44.68L16.7044 41.527L16.5316 42.2179L16.4354 42.9235L29.3162 44.68ZM27.5882 57.352L14.7074 55.5955L12.6952 70.352H27.5882V57.352ZM33.9962 57.352L46.8743 59.1283L48.9124 44.352H33.9962V57.352ZM33.4202 61.528L42.0569 71.2443L45.6427 68.0569L46.2983 63.3043L33.4202 61.528ZM31.4762 63.256V76.256H36.4188L40.1129 72.9723L31.4762 63.256ZM14.9162 63.256L2.03815 61.4797L3.05176e-05 76.256H14.9162V63.256ZM15.4922 59.08L6.85548 49.3637L3.26968 52.5511L2.61414 57.3037L15.4922 59.08ZM17.4362 57.352V44.352H12.4936L8.79948 47.6357L17.4362 57.352ZM20.1722 57.352V70.352H31.7087L33.08 58.8973L20.1722 57.352ZM22.6202 36.904L35.528 38.4493L37.2694 23.904H22.6202V36.904ZM17.7962 36.904L4.88675 35.3724L3.16266 49.904H17.7962V36.904ZM18.3002 32.656L9.66348 22.9397L5.97258 26.2205L5.39076 31.1244L18.3002 32.656ZM20.2442 30.928V43.928H29.0282V30.928V17.928H20.2442V30.928ZM29.0282 30.928L16.0361 31.3799L16.3241 39.6599L29.3162 39.208L42.3084 38.7561L42.0204 30.4761L29.0282 30.928ZM29.3162 39.208L41.5947 43.4788C41.9581 42.434 42.4399 41.5117 43.0444 40.6697L32.4842 33.088L21.924 25.5063C19.8405 28.4083 18.2104 31.566 17.0378 34.9372L29.3162 39.208ZM32.4842 33.088L43.0444 40.6697C42.8705 40.9119 42.301 41.6182 41.1839 42.2589C39.9894 42.944 38.6407 43.28 37.3802 43.28V30.28V17.28C30.4055 17.28 25.1559 21.0047 21.924 25.5063L32.4842 33.088ZM37.3802 30.28V43.28C36.7095 43.28 35.8909 43.1718 35.0155 42.8629C34.1368 42.5527 33.3967 42.1092 32.8201 41.6374L41.0522 31.576L49.2843 21.5146C45.8551 18.7088 41.7071 17.28 37.3802 17.28V30.28ZM41.0522 31.576L28.2075 29.5727L26.9835 37.4207L39.8282 39.424L52.6729 41.4273L53.8969 33.5793L41.0522 31.576ZM39.8282 39.424L46.3246 28.1636C43.4103 26.4822 39.9449 25.344 36.0842 25.344V38.344V51.344C34.7195 51.344 33.7501 50.9257 33.3318 50.6844L39.8282 39.424ZM36.0842 38.344V25.344C31.0248 25.344 26.4023 27.2678 22.8333 30.694L31.8362 40.072L40.8391 49.45C40.3571 49.9128 39.6425 50.433 38.6966 50.8178C37.7461 51.2045 36.8328 51.344 36.0842 51.344V38.344ZM31.8362 40.072L22.8333 30.694C19.558 33.8382 17.6638 37.6893 16.7044 41.527L29.3162 44.68L41.9281 47.833C41.9336 47.811 41.8878 48.0041 41.712 48.3256C41.5294 48.6595 41.2447 49.0607 40.8391 49.45L31.8362 40.072ZM29.3162 44.68L16.4354 42.9235L14.7074 55.5955L27.5882 57.352L40.469 59.1085L42.197 46.4365L29.3162 44.68ZM27.5882 57.352V70.352H33.9962V57.352V44.352H27.5882V57.352ZM33.9962 57.352L21.1181 55.5757L20.5421 59.7517L33.4202 61.528L46.2983 63.3043L46.8743 59.1283L33.9962 57.352ZM33.4202 61.528L24.7835 51.8117L22.8395 53.5397L31.4762 63.256L40.1129 72.9723L42.0569 71.2443L33.4202 61.528ZM31.4762 63.256V50.256H14.9162V63.256V76.256H31.4762V63.256ZM14.9162 63.256L27.7943 65.0323L28.3703 60.8563L15.4922 59.08L2.61414 57.3037L2.03815 61.4797L14.9162 63.256ZM15.4922 59.08L24.1289 68.7963L26.0729 67.0683L17.4362 57.352L8.79948 47.6357L6.85548 49.3637L15.4922 59.08ZM17.4362 57.352V70.352H20.1722V57.352V44.352H17.4362V57.352ZM20.1722 57.352L33.08 58.8973L35.528 38.4493L22.6202 36.904L9.71239 35.3587L7.26439 55.8067L20.1722 57.352ZM22.6202 36.904V23.904H17.7962V36.904V49.904H22.6202V36.904ZM17.7962 36.904L30.7057 38.4356L31.2097 34.1876L18.3002 32.656L5.39076 31.1244L4.88675 35.3724L17.7962 36.904ZM18.3002 32.656L26.937 42.3723L28.881 40.6443L20.2442 30.928L11.6075 21.2117L9.66348 22.9397L18.3002 32.656ZM62.9807 56.128L52.7191 48.1468L52.6254 48.2673L52.5345 48.39L62.9807 56.128ZM65.1407 52.312L67.7492 39.5764L56.584 37.2895L52.8559 48.0596L65.1407 52.312ZM71.1167 53.536L83.889 55.9583L86.2763 43.3711L73.7252 40.8004L71.1167 53.536ZM66.6527 60.88L75.0325 70.8188L75.0889 70.7712L75.1447 70.723L66.6527 60.88ZM47.2127 60.52L38.2973 69.9813L38.3908 70.0694L38.4861 70.1557L47.2127 60.52ZM48.0047 36.04L37.8534 27.919L37.8472 27.9268L37.8409 27.9347L48.0047 36.04ZM68.5247 32.656L60.7247 43.056L60.8566 43.1549L60.9909 43.2504L68.5247 32.656ZM69.1727 44.968L60.1107 35.6471L60.0451 35.7109L59.9803 35.7756L69.1727 44.968ZM60.2447 48.856L57.5306 36.1425L57.4259 36.1648L57.3215 36.1889L60.2447 48.856ZM56.1407 49.648L57.8589 62.534L58.0352 62.5105L58.2107 62.4821L56.1407 49.648ZM51.5327 50.224L50.0138 37.313L38.0805 38.7169L38.5423 50.7236L51.5327 50.224ZM53.1167 56.056L42.4149 63.4365L42.4758 63.5248L42.5382 63.6121L53.1167 56.056ZM56.5727 44.824L58.4112 57.6933L58.8433 57.6316L59.2703 57.541L56.5727 44.824ZM62.6207 42.376L53.1957 33.4222L53.0751 33.5492L52.9579 33.6795L62.6207 42.376ZM62.6927 36.544L55.1958 47.1646L55.5471 47.4125L55.9139 47.6367L62.6927 36.544ZM54.0527 38.776L65.2235 45.4253L65.2577 45.3679L65.2913 45.3101L54.0527 38.776ZM51.7487 45.616L38.8606 43.9138L36.7001 60.2719L53.1096 58.5446L51.7487 45.616ZM54.3407 45.256L56.5999 58.0582L56.9612 57.9944L57.3182 57.9104L54.3407 45.256ZM58.0127 58.072V71.072C62.5004 71.072 69.0355 69.7944 73.427 63.866L62.9807 56.128L52.5345 48.39C53.6561 46.8759 55.0752 45.9519 56.2815 45.4798C56.8374 45.2623 57.2871 45.1631 57.5714 45.1171C57.854 45.0714 58.0121 45.072 58.0127 45.072V58.072ZM62.9807 56.128L73.2423 64.1092C74.9205 61.9516 76.4304 59.4393 77.4255 56.5644L65.1407 52.312L52.8559 48.0596C52.9235 47.8644 52.9756 47.7766 52.9634 47.7982C52.9504 47.8212 52.8813 47.9383 52.7191 48.1468L62.9807 56.128ZM65.1407 52.312L62.5322 65.0476L68.5082 66.2716L71.1167 53.536L73.7252 40.8004L67.7492 39.5764L65.1407 52.312ZM71.1167 53.536L58.3444 51.1137C58.3565 51.0496 58.3779 50.9704 58.4101 50.8868C58.4422 50.8034 58.4749 50.7421 58.4959 50.7076C58.5162 50.6743 58.5136 50.6855 58.4677 50.7386C58.4208 50.793 58.3255 50.8948 58.1607 51.037L66.6527 60.88L75.1447 70.723C79.4871 66.9767 82.7377 62.0292 83.889 55.9583L71.1167 53.536ZM66.6527 60.88L58.2729 50.9412C58.448 50.7936 58.5616 50.7714 58.4496 50.8068C58.3014 50.8537 57.8184 50.976 56.8607 50.976V63.976V76.976C63.1467 76.976 69.6564 75.3516 75.0325 70.8188L66.6527 60.88ZM56.8607 63.976V50.976C56.2072 50.976 55.9381 50.8812 55.9167 50.8735C55.901 50.8679 55.9122 50.8708 55.9352 50.8846C55.958 50.8983 55.9607 50.9037 55.9394 50.8843L47.2127 60.52L38.4861 70.1557C43.741 74.9148 50.2068 76.976 56.8607 76.976V63.976ZM47.2127 60.52L56.1281 51.0587C56.3332 51.252 56.4875 51.4499 56.5912 51.6156C56.6917 51.776 56.7139 51.8563 56.6963 51.8051C56.6508 51.6731 56.4687 51.0355 56.4687 49.648H43.4687H30.4687C30.4687 56.5684 32.2443 64.2775 38.2973 69.9813L47.2127 60.52ZM43.4687 49.648H56.4687C56.4687 47.0346 57.1471 45.4262 58.1685 44.1453L48.0047 36.04L37.8409 27.9347C32.8143 34.2378 30.4687 41.7014 30.4687 49.648H43.4687ZM48.0047 36.04L58.156 44.161C58.5178 43.7088 58.75 43.5871 58.8712 43.5314C59.0201 43.4629 59.4893 43.28 60.5327 43.28V30.28V17.28C51.6378 17.28 43.594 20.7433 37.8534 27.919L48.0047 36.04ZM60.5327 30.28V43.28C61.0787 43.28 61.28 43.3474 61.2381 43.335C61.2165 43.3285 61.1476 43.3058 61.0468 43.2557C60.9451 43.2051 60.8341 43.138 60.7247 43.056L68.5247 32.656L76.3247 22.256C71.507 18.6427 65.9334 17.28 60.5327 17.28V30.28ZM68.5247 32.656L60.9909 43.2504C60.633 42.9959 59.9696 42.4023 59.4363 41.3831C58.8975 40.3533 58.7647 39.4109 58.7647 38.848H71.7647H84.7647C84.7647 31.9364 81.5559 25.9708 76.0585 22.0616L68.5247 32.656ZM71.7647 38.848H58.7647C58.7647 38.4526 58.8439 37.8216 59.1461 37.1081C59.4478 36.3957 59.8414 35.9088 60.1107 35.6471L69.1727 44.968L78.2347 54.2889C82.4684 50.1729 84.7647 44.7759 84.7647 38.848H71.7647ZM69.1727 44.968L59.9803 35.7756C60.6293 35.1266 60.9963 35.0608 60.4902 35.2811C60.0183 35.4867 59.0877 35.8101 57.5306 36.1425L60.2447 48.856L62.9588 61.5695C67.9195 60.5105 73.9624 58.5631 78.3651 54.1604L69.1727 44.968ZM60.2447 48.856L57.3215 36.1889C56.4001 36.4016 55.321 36.6122 54.0707 36.8139L56.1407 49.648L58.2107 62.4821C59.9365 62.2038 61.5934 61.8864 63.1679 61.5231L60.2447 48.856ZM56.1407 49.648L54.4226 36.762C53.0568 36.9441 51.5877 37.1279 50.0138 37.313L51.5327 50.224L53.0516 63.135C54.7417 62.9361 56.3446 62.7359 57.8589 62.534L56.1407 49.648ZM51.5327 50.224L38.5423 50.7236C38.6906 54.5794 39.5375 59.2643 42.4149 63.4365L53.1167 56.056L63.8185 48.6755C64.3158 49.3966 64.4966 49.9637 64.5462 50.1466C64.5928 50.3183 64.5419 50.2134 64.5231 49.7244L51.5327 50.224ZM53.1167 56.056L42.5382 63.6121C46.8177 69.6035 53.2946 71.072 58.0127 71.072V58.072V45.072C58.0652 45.072 58.8566 45.0721 60.0105 45.5472C61.2913 46.0746 62.6574 47.0469 63.6953 48.4999L53.1167 56.056ZM56.5727 44.824L59.2703 57.541C61.2758 57.1156 63.373 56.5537 65.3382 55.7583C67.0845 55.0515 69.9223 53.6962 72.2835 51.0725L62.6207 42.376L52.9579 33.6795C53.7812 32.7646 54.5452 32.243 54.9332 32.0038C55.1457 31.8727 55.3117 31.7858 55.4138 31.7355C55.517 31.6846 55.5769 31.6602 55.5832 31.6577C55.5872 31.6561 55.4553 31.7088 55.1461 31.7976C54.843 31.8846 54.4254 31.9902 53.8752 32.1069L56.5727 44.824ZM62.6207 42.376L72.0457 51.3297C74.6428 48.596 76.9887 44.5319 76.9887 39.352H63.9887H50.9887C50.9887 36.2841 52.4226 34.236 53.1957 33.4222L62.6207 42.376ZM63.9887 39.352H76.9887C76.9887 35.1517 75.4397 29.0985 69.4716 25.4513L62.6927 36.544L55.9139 47.6367C54.1071 46.5325 52.7034 44.9144 51.8612 43.0898C51.0879 41.4141 50.9887 40.0135 50.9887 39.352H63.9887ZM62.6927 36.544L70.1896 25.9234C66.6866 23.4507 62.8542 22.68 59.5967 22.68V35.68V48.68C58.8352 48.68 57.0668 48.4853 55.1958 47.1646L62.6927 36.544ZM59.5967 35.68V22.68C52.7288 22.68 46.4685 25.9564 42.8141 32.2419L54.0527 38.776L65.2913 45.3101C64.8727 46.0301 64.0396 47.0432 62.6771 47.8041C61.3428 48.5492 60.1686 48.68 59.5967 48.68V35.68ZM54.0527 38.776L42.8819 32.1267C40.6984 35.7951 39.4058 39.7865 38.8606 43.9138L51.7487 45.616L64.6368 47.3182C64.7637 46.3575 65.0071 45.7889 65.2235 45.4253L54.0527 38.776ZM51.7487 45.616L53.1096 58.5446C54.2912 58.4202 55.4566 58.2599 56.5999 58.0582L54.3407 45.256L52.0815 32.4538C51.5928 32.54 51.0303 32.6198 50.3878 32.6874L51.7487 45.616ZM54.3407 45.256L57.3182 57.9104C57.8413 57.7873 58.1982 57.7238 58.4112 57.6933L56.5727 44.824L54.7342 31.9547C53.6032 32.1162 52.4721 32.3407 51.3632 32.6016L54.3407 45.256ZM96.85 15.448L88.2133 5.73167L84.5335 9.00252L83.9436 13.8903L96.85 15.448ZM98.794 13.72V0.719994H93.8514L90.1573 4.00367L98.794 13.72ZM110.962 13.72L123.866 15.2957L125.646 0.719994H110.962V13.72ZM105.634 57.352L92.7298 55.7762L90.95 70.352H105.634V57.352ZM110.242 57.352L123.154 58.8584L124.847 44.352H110.242V57.352ZM109.738 61.672L117.95 71.7501L122.039 68.418L122.65 63.1784L109.738 61.672ZM107.794 63.256V76.256H112.42L116.006 73.3341L107.794 63.256ZM98.65 63.256H85.65V76.256H98.65V63.256ZM98.65 56.272H111.65L87.1868 50.1405L98.65 56.272ZM94.186 61.672L85.9398 51.622V51.622L94.186 61.672ZM79.282 60.088L68.4653 67.2991V67.2991L79.282 60.088ZM78.274 41.368L90.5679 45.594L90.5779 45.5649L90.5878 45.5357L78.274 41.368ZM83.242 33.52L92.1265 43.0103L92.1797 42.9604L92.2324 42.91L83.242 33.52ZM100.882 35.248L89.2208 40.9941L108.419 79.9561L113.783 36.8531L100.882 35.248ZM102.826 19.624L115.727 21.2291L117.544 6.624H102.826V19.624ZM96.346 19.624L83.4396 18.0663L81.6827 32.624H96.346V19.624ZM86.626 40.432L74.9188 34.7803L74.879 34.8627L74.8404 34.9456L86.626 40.432ZM85.978 55.768L74.6475 62.1414V62.1414L85.978 55.768ZM95.986 55.048L86.0181 46.7028L86.0086 46.7142L85.9991 46.7256L95.986 55.048ZM99.226 48.64L111.984 51.1361L112.072 50.6846L112.129 50.228L99.226 48.64ZM99.802 43.96L112.705 45.548L112.786 44.8864L112.799 44.2199L99.802 43.96ZM97.858 38.344L88.5057 47.3737L88.585 47.4558L88.6656 47.5364L97.858 38.344ZM96.85 15.448L105.487 25.1643L107.431 23.4363L98.794 13.72L90.1573 4.00367L88.2133 5.73167L96.85 15.448ZM98.794 13.72V26.72H110.962V13.72V0.719994H98.794V13.72ZM110.962 13.72L98.0578 12.1442L92.7298 55.7762L105.634 57.352L118.538 58.9277L123.866 15.2957L110.962 13.72ZM105.634 57.352V70.352H110.242V57.352V44.352H105.634V57.352ZM110.242 57.352L97.3296 55.8456L96.8256 60.1656L109.738 61.672L122.65 63.1784L123.154 58.8584L110.242 57.352ZM109.738 61.672L101.526 51.5939L99.5822 53.1779L107.794 63.256L116.006 73.3341L117.95 71.7501L109.738 61.672ZM107.794 63.256V50.256H98.65V63.256V76.256H107.794V63.256ZM98.65 63.256H111.65V56.272H98.65H85.65V63.256H98.65ZM98.65 56.272L87.1868 50.1405C86.9155 50.6478 86.5392 51.1303 85.9398 51.622L94.186 61.672L102.432 71.722C105.577 69.1417 108.176 66.0242 110.113 62.4035L98.65 56.272ZM94.186 61.672L85.9398 51.622C86.2573 51.3616 86.6258 51.1658 86.9632 51.0544C87.2781 50.9506 87.3951 50.976 87.202 50.976V63.976V76.976C92.5187 76.976 97.8932 75.4462 102.432 71.722L94.186 61.672ZM87.202 63.976V50.976C87.005 50.976 87.4912 50.9438 88.2867 51.3343C89.1496 51.7579 89.7682 52.3812 90.0986 52.8769L79.282 60.088L68.4653 67.2991C72.974 74.0621 80.0148 76.976 87.202 76.976V63.976ZM79.282 60.088L90.0986 52.8769C90.0946 52.8708 89.69 52.3144 89.69 50.44H76.69H63.69C63.69 56.2456 65.0134 62.1212 68.4653 67.2991L79.282 60.088ZM76.69 50.44H89.69C89.69 49.0277 89.9367 47.4303 90.5679 45.594L78.274 41.368L65.98 37.142C64.4993 41.4497 63.69 45.9003 63.69 50.44H76.69ZM78.274 41.368L90.5878 45.5357C91.0034 44.3078 91.5375 43.5616 92.1265 43.0103L83.242 33.52L74.3575 24.0297C70.4344 27.7024 67.6565 32.1882 65.9602 37.2002L78.274 41.368ZM83.242 33.52L92.2324 42.91C92.1766 42.9634 92.0876 43.0373 91.9684 43.1121C91.8491 43.187 91.7351 43.2406 91.6435 43.2746C91.4498 43.3467 91.5014 43.28 91.954 43.28V30.28V17.28C85.5489 17.28 79.2639 19.3309 74.2515 24.13L83.242 33.52ZM91.954 30.28V43.28C92.4839 43.28 92.0019 43.3809 91.1048 42.8817C90.6592 42.6338 90.2344 42.3028 89.8747 41.9151C89.5215 41.5343 89.3196 41.1945 89.2208 40.9941L100.882 35.248L112.543 29.5019C110.662 25.6848 107.74 22.3842 103.747 20.1623C99.8741 18.0071 95.7441 17.28 91.954 17.28V30.28ZM100.882 35.248L113.783 36.8531L115.727 21.2291L102.826 19.624L89.9254 18.0189L87.9814 33.6429L100.882 35.248ZM102.826 19.624V6.624H96.346V19.624V32.624H102.826V19.624ZM96.346 19.624L109.252 21.1817L109.756 17.0057L96.85 15.448L83.9436 13.8903L83.4396 18.0663L96.346 19.624ZM93.106 36.256V23.256C89.524 23.256 85.7068 24.1203 82.2119 26.3726C78.7467 28.6056 76.4185 31.6737 74.9188 34.7803L86.626 40.432L98.3331 46.0837C98.1774 46.4063 97.6012 47.3863 96.2961 48.2274C94.9611 49.0877 93.7119 49.256 93.106 49.256V36.256ZM86.626 40.432L74.8404 34.9456C72.6947 39.555 71.682 44.4662 71.682 49.504H84.682H97.682C97.682 48.0138 97.9653 46.877 98.4115 45.9184L86.626 40.432ZM84.682 49.504H71.682C71.682 53.349 72.2764 57.9262 74.6475 62.1414L85.978 55.768L97.3084 49.3946C97.6538 50.0085 97.736 50.4145 97.7364 50.4161C97.7379 50.4235 97.7234 50.3551 97.709 50.1976C97.6947 50.0406 97.682 49.8122 97.682 49.504H84.682ZM85.978 55.768L74.6475 62.1414C77.9851 68.075 83.8731 71.072 90.082 71.072V58.072V45.072C90.944 45.072 92.4124 45.2599 94.0159 46.1602C95.6595 47.0829 96.7193 48.3473 97.3084 49.3946L85.978 55.768ZM90.082 58.072V71.072C96.8466 71.072 102.272 67.8114 105.973 63.3704L95.986 55.048L85.9991 46.7256C86.0741 46.6356 86.4863 46.1743 87.3236 45.7454C88.2121 45.2904 89.1925 45.072 90.082 45.072V58.072ZM95.986 55.048L105.954 63.3932C108.815 59.9762 111.055 55.8843 111.984 51.1361L99.226 48.64L86.4679 46.1438C86.4951 46.0045 86.5265 45.9611 86.4906 46.0321C86.4502 46.1121 86.3224 46.3393 86.0181 46.7028L95.986 55.048ZM99.226 48.64L112.129 50.228L112.705 45.548L99.802 43.96L86.8993 42.372L86.3233 47.052L99.226 48.64ZM99.802 43.96L112.799 44.2199C112.898 39.2679 111.516 33.6177 107.05 29.1516L97.858 38.344L88.6656 47.5364C87.887 46.7578 87.3589 45.8511 87.0671 45.0084C86.7954 44.2235 86.8042 43.7193 86.8046 43.7001L99.802 43.96ZM97.858 38.344L107.21 29.3143C103.583 25.5572 98.6893 23.256 93.106 23.256V36.256V49.256C92.317 49.256 91.3774 49.095 90.4324 48.6797C89.5035 48.2716 88.8693 47.7503 88.5057 47.3737L97.858 38.344ZM134.908 56.128L124.646 48.1468L124.552 48.2673L124.461 48.39L134.908 56.128ZM137.068 52.312L139.676 39.5764L128.511 37.2895L124.783 48.0596L137.068 52.312ZM143.044 53.536L155.816 55.9583L158.203 43.3711L145.652 40.8004L143.044 53.536ZM138.58 60.88L146.959 70.8188L147.016 70.7712L147.072 70.723L138.58 60.88ZM119.14 60.52L110.224 69.9813L110.318 70.0694L110.413 70.1557L119.14 60.52ZM119.932 36.04L109.78 27.919L109.774 27.9268L109.768 27.9347L119.932 36.04ZM140.452 32.656L132.652 43.056L132.783 43.1549L132.918 43.2504L140.452 32.656ZM141.1 44.968L132.038 35.6471L131.972 35.7109L131.907 35.7756L141.1 44.968ZM132.172 48.856L129.457 36.1425L129.353 36.1648L129.248 36.1889L132.172 48.856ZM128.068 49.648L129.786 62.534L129.962 62.5105L130.138 62.4821L128.068 49.648ZM123.46 50.224L121.941 37.313L110.007 38.7169L110.469 50.7236L123.46 50.224ZM125.044 56.056L114.342 63.4365L114.403 63.5248L114.465 63.6121L125.044 56.056ZM128.5 44.824L130.338 57.6933L130.77 57.6316L131.197 57.541L128.5 44.824ZM134.548 42.376L125.123 33.4222L125.002 33.5492L124.885 33.6795L134.548 42.376ZM134.62 36.544L127.123 47.1646L127.474 47.4125L127.841 47.6367L134.62 36.544ZM125.98 38.776L137.15 45.4253L137.185 45.3679L137.218 45.3101L125.98 38.776ZM123.676 45.616L110.788 43.9138L108.627 60.2719L125.036 58.5446L123.676 45.616ZM126.268 45.256L128.527 58.0582L128.888 57.9944L129.245 57.9104L126.268 45.256ZM129.94 58.072V71.072C134.427 71.072 140.962 69.7944 145.354 63.866L134.908 56.128L124.461 48.39C125.583 46.8759 127.002 45.9519 128.208 45.4798C128.764 45.2623 129.214 45.1631 129.498 45.1171C129.781 45.0714 129.939 45.072 129.94 45.072V58.072ZM134.908 56.128L145.169 64.1092C146.847 61.9516 148.357 59.4393 149.352 56.5644L137.068 52.312L124.783 48.0596C124.85 47.8644 124.902 47.7766 124.89 47.7982C124.877 47.8212 124.808 47.9383 124.646 48.1468L134.908 56.128ZM137.068 52.312L134.459 65.0476L140.435 66.2716L143.044 53.536L145.652 40.8004L139.676 39.5764L137.068 52.312ZM143.044 53.536L130.271 51.1137C130.283 51.0496 130.305 50.9704 130.337 50.8868C130.369 50.8034 130.402 50.7421 130.423 50.7076C130.443 50.6743 130.44 50.6855 130.395 50.7386C130.348 50.793 130.252 50.8948 130.088 51.037L138.58 60.88L147.072 70.723C151.414 66.9767 154.665 62.0292 155.816 55.9583L143.044 53.536ZM138.58 60.88L130.2 50.9412C130.375 50.7936 130.489 50.7714 130.377 50.8068C130.228 50.8537 129.745 50.976 128.788 50.976V63.976V76.976C135.074 76.976 141.583 75.3516 146.959 70.8188L138.58 60.88ZM128.788 63.976V50.976C128.134 50.976 127.865 50.8812 127.844 50.8735C127.828 50.8679 127.839 50.8708 127.862 50.8846C127.885 50.8983 127.888 50.9037 127.866 50.8843L119.14 60.52L110.413 70.1557C115.668 74.9148 122.134 76.976 128.788 76.976V63.976ZM119.14 60.52L128.055 51.0587C128.26 51.252 128.414 51.4499 128.518 51.6156C128.619 51.776 128.641 51.8563 128.623 51.8051C128.578 51.6731 128.396 51.0355 128.396 49.648H115.396H102.396C102.396 56.5684 104.171 64.2775 110.224 69.9813L119.14 60.52ZM115.396 49.648H128.396C128.396 47.0346 129.074 45.4262 130.095 44.1453L119.932 36.04L109.768 27.9347C104.741 34.2378 102.396 41.7014 102.396 49.648H115.396ZM119.932 36.04L130.083 44.161C130.445 43.7088 130.677 43.5871 130.798 43.5314C130.947 43.4629 131.416 43.28 132.46 43.28V30.28V17.28C123.565 17.28 115.521 20.7433 109.78 27.919L119.932 36.04ZM132.46 30.28V43.28C133.006 43.28 133.207 43.3474 133.165 43.335C133.143 43.3285 133.074 43.3058 132.974 43.2557C132.872 43.2051 132.761 43.138 132.652 43.056L140.452 32.656L148.252 22.256C143.434 18.6427 137.86 17.28 132.46 17.28V30.28ZM140.452 32.656L132.918 43.2504C132.56 42.9959 131.897 42.4023 131.363 41.3831C130.824 40.3533 130.692 39.4109 130.692 38.848H143.692H156.692C156.692 31.9364 153.483 25.9708 147.985 22.0616L140.452 32.656ZM143.692 38.848H130.692C130.692 38.4526 130.771 37.8216 131.073 37.1081C131.375 36.3957 131.768 35.9088 132.038 35.6471L141.1 44.968L150.162 54.2889C154.395 50.1729 156.692 44.7759 156.692 38.848H143.692ZM141.1 44.968L131.907 35.7756C132.556 35.1266 132.923 35.0608 132.417 35.2811C131.945 35.4867 131.015 35.8101 129.457 36.1425L132.172 48.856L134.886 61.5695C139.846 60.5105 145.889 58.5631 150.292 54.1604L141.1 44.968ZM132.172 48.856L129.248 36.1889C128.327 36.4016 127.248 36.6122 125.998 36.8139L128.068 49.648L130.138 62.4821C131.863 62.2038 133.52 61.8864 135.095 61.5231L132.172 48.856ZM128.068 49.648L126.349 36.762C124.984 36.9441 123.515 37.1279 121.941 37.313L123.46 50.224L124.979 63.135C126.669 62.9361 128.271 62.7359 129.786 62.534L128.068 49.648ZM123.46 50.224L110.469 50.7236C110.617 54.5794 111.464 59.2643 114.342 63.4365L125.044 56.056L135.745 48.6755C136.243 49.3966 136.423 49.9637 136.473 50.1466C136.52 50.3183 136.469 50.2134 136.45 49.7244L123.46 50.224ZM125.044 56.056L114.465 63.6121C118.745 69.6035 125.221 71.072 129.94 71.072V58.072V45.072C129.992 45.072 130.784 45.0721 131.937 45.5472C133.218 46.0746 134.584 47.0469 135.622 48.4999L125.044 56.056ZM128.5 44.824L131.197 57.541C133.203 57.1156 135.3 56.5537 137.265 55.7583C139.011 55.0515 141.849 53.6962 144.21 51.0725L134.548 42.376L124.885 33.6795C125.708 32.7646 126.472 32.243 126.86 32.0038C127.073 31.8727 127.239 31.7858 127.341 31.7355C127.444 31.6846 127.504 31.6602 127.51 31.6577C127.514 31.6561 127.382 31.7088 127.073 31.7976C126.77 31.8846 126.352 31.9902 125.802 32.1069L128.5 44.824ZM134.548 42.376L143.973 51.3297C146.57 48.596 148.916 44.5319 148.916 39.352H135.916H122.916C122.916 36.2841 124.35 34.236 125.123 33.4222L134.548 42.376ZM135.916 39.352H148.916C148.916 35.1517 147.367 29.0985 141.398 25.4513L134.62 36.544L127.841 47.6367C126.034 46.5325 124.63 44.9144 123.788 43.0898C123.015 41.4141 122.916 40.0135 122.916 39.352H135.916ZM134.62 36.544L142.116 25.9234C138.613 23.4507 134.781 22.68 131.524 22.68V35.68V48.68C130.762 48.68 128.994 48.4853 127.123 47.1646L134.62 36.544ZM131.524 35.68V22.68C124.656 22.68 118.395 25.9564 114.741 32.2419L125.98 38.776L137.218 45.3101C136.8 46.0301 135.966 47.0432 134.604 47.8041C133.27 48.5492 132.095 48.68 131.524 48.68V35.68ZM125.98 38.776L114.809 32.1267C112.625 35.7951 111.333 39.7865 110.788 43.9138L123.676 45.616L136.564 47.3182C136.691 46.3575 136.934 45.7889 137.15 45.4253L125.98 38.776ZM123.676 45.616L125.036 58.5446C126.218 58.4202 127.383 58.2599 128.527 58.0582L126.268 45.256L124.008 32.4538C123.52 32.54 122.957 32.6198 122.315 32.6874L123.676 45.616ZM126.268 45.256L129.245 57.9104C129.768 57.7873 130.125 57.7238 130.338 57.6933L128.5 44.824L126.661 31.9547C125.53 32.1162 124.399 32.3407 123.29 32.6016L126.268 45.256ZM181.305 30.928L194.208 32.5102L195.996 17.928H181.305V30.928ZM178.065 57.352L165.161 55.7698L163.373 70.352H178.065V57.352ZM182.673 57.352L195.559 59.0701L197.521 44.352H182.673V57.352ZM182.097 61.672L190.494 71.596L194.32 68.3584L194.983 63.3901L182.097 61.672ZM180.225 63.256V76.256H184.987L188.622 73.18L180.225 63.256ZM169.929 63.256L157.026 61.6696L155.233 76.256H169.929V63.256ZM173.169 36.904L186.072 38.4904L187.865 23.904H173.169V36.904ZM161.361 36.904V23.904H149.846L148.456 35.3349L161.361 36.904ZM157.833 65.92L170.73 67.5548L170.734 67.5219L170.738 67.4891L157.833 65.92ZM154.665 75.136L143.587 68.3336L143.543 68.4047L143.5 68.4764L154.665 75.136ZM138.753 76.864L130.356 86.788V86.788L138.753 76.864ZM136.017 69.16L132.324 56.6956L123.147 59.4145L123.018 68.9843L136.017 69.16ZM141.849 67.432L154.846 67.682L155.188 49.921L138.156 54.9676L141.849 67.432ZM143.145 72.256L151.467 62.2691L151.335 62.1591L151.2 62.0525L143.145 72.256ZM148.977 70.96L137.142 65.5806L137.074 65.7309L137.009 65.8829L148.977 70.96ZM150.417 65.776L163.311 67.4291L163.316 67.391L163.321 67.3528L150.417 65.776ZM153.945 36.904L166.849 38.4808L168.63 23.904H153.945V36.904ZM148.185 36.904L135.236 35.7479L133.972 49.904H148.185V36.904ZM148.545 32.872L139.848 23.2092L136.051 26.627L135.596 31.7159L148.545 32.872ZM150.705 30.928V17.928H145.716L142.008 21.2652L150.705 30.928ZM154.665 30.928V43.928H166.16L167.567 32.5187L154.665 30.928ZM155.313 25.672L168.215 27.2627V27.2627L155.313 25.672ZM159.417 16.744L149.956 7.82858L149.95 7.83426L159.417 16.744ZM175.545 13.576L173.112 26.3464L173.14 26.3516L173.167 26.3567L175.545 13.576ZM181.233 15.664L194.21 14.9006L193.801 7.94544L187.783 4.43487L181.233 15.664ZM181.737 24.232L183.138 37.1562L195.441 35.8222L194.714 23.4686L181.737 24.232ZM175.761 24.88L162.943 27.0464L164.984 39.1248L177.162 37.8042L175.761 24.88ZM174.897 19.768L187.715 17.6015L186.499 10.4075L179.725 7.6978L174.897 19.768ZM173.025 19.192L168.914 31.5249L169.388 31.6828L169.872 31.8038L173.025 19.192ZM164.601 20.632L154.647 12.2705L154.63 12.29L154.614 12.3096L164.601 20.632ZM162.801 25.456L175.69 27.1519L175.703 27.0548L175.714 26.9575L162.801 25.456ZM162.081 30.928L149.192 29.2321L147.258 43.928H162.081V30.928ZM181.305 30.928L168.401 29.3458L165.161 55.7698L178.065 57.352L190.968 58.9342L194.208 32.5102L181.305 30.928ZM178.065 57.352V70.352H182.673V57.352V44.352H178.065V57.352ZM182.673 57.352L169.787 55.6339L169.211 59.9539L182.097 61.672L194.983 63.3901L195.559 59.0701L182.673 57.352ZM182.097 61.672L173.7 51.748L171.828 53.332L180.225 63.256L188.622 73.18L190.494 71.596L182.097 61.672ZM180.225 63.256V50.256H169.929V63.256V76.256H180.225V63.256ZM169.929 63.256L182.832 64.8424L186.072 38.4904L173.169 36.904L160.266 35.3176L157.026 61.6696L169.929 63.256ZM173.169 36.904V23.904H161.361V36.904V49.904H173.169V36.904ZM161.361 36.904L148.456 35.3349L144.928 64.3509L157.833 65.92L170.738 67.4891L174.266 38.4731L161.361 36.904ZM157.833 65.92L144.936 64.2852C144.72 65.9914 144.234 67.2796 143.587 68.3336L154.665 75.136L165.743 81.9384C168.456 77.5204 170.082 72.6646 170.73 67.5548L157.833 65.92ZM154.665 75.136L143.5 68.4764C143.734 68.0848 144.066 67.6606 144.501 67.2687C144.936 66.8778 145.373 66.6083 145.742 66.4361C146.444 66.1079 146.651 66.24 145.881 66.24V79.24V92.24C152.991 92.24 161.099 89.7266 165.829 81.7956L154.665 75.136ZM145.881 79.24V66.24C145.632 66.24 145.73 66.2066 146.05 66.3131C146.397 66.4287 146.796 66.6406 147.15 66.94L138.753 76.864L130.356 86.788C134.972 90.6944 140.49 92.24 145.881 92.24V79.24ZM138.753 76.864L147.15 66.94C148.158 67.7932 148.69 68.7647 148.915 69.3994C149.105 69.9339 149.006 70.0137 149.016 69.3357L136.017 69.16L123.018 68.9843C122.942 74.6191 124.372 81.7251 130.356 86.788L138.753 76.864ZM136.017 69.16L139.71 81.6244L145.542 79.8964L141.849 67.432L138.156 54.9676L132.324 56.6956L136.017 69.16ZM141.849 67.432L128.851 67.182C128.814 69.1074 128.933 71.4672 129.582 73.8829C130.22 76.258 131.669 79.7591 135.089 82.4595L143.145 72.256L151.2 62.0525C153.709 64.0329 154.486 66.3699 154.692 67.1371C154.909 67.9448 154.835 68.2526 154.846 67.682L141.849 67.432ZM143.145 72.256L134.822 82.2429C136.968 84.0309 140.647 86.336 145.593 86.336V73.336V60.336C149.003 60.336 151.05 61.9211 151.467 62.2691L143.145 72.256ZM145.593 73.336V86.336C148.646 86.336 152.03 85.5349 155.097 83.3814C158.091 81.279 159.894 78.5139 160.944 76.0371L148.977 70.96L137.009 65.8829C137.388 64.9901 138.29 63.413 140.157 62.1026C142.096 60.7411 144.124 60.336 145.593 60.336V73.336ZM148.977 70.96L160.812 76.3394C162.112 73.4775 162.92 70.4806 163.311 67.4291L150.417 65.776L137.522 64.1229C137.434 64.8154 137.281 65.2745 137.142 65.5806L148.977 70.96ZM150.417 65.776L163.321 67.3528L166.849 38.4808L153.945 36.904L141.041 35.3272L137.513 64.1992L150.417 65.776ZM153.945 36.904V23.904H148.185V36.904V49.904H153.945V36.904ZM148.185 36.904L161.133 38.0601L161.493 34.0281L148.545 32.872L135.596 31.7159L135.236 35.7479L148.185 36.904ZM148.545 32.872L157.241 42.5348L159.401 40.5908L150.705 30.928L142.008 21.2652L139.848 23.2092L148.545 32.872ZM150.705 30.928V43.928H154.665V30.928V17.928H150.705V30.928ZM154.665 30.928L167.567 32.5187L168.215 27.2627L155.313 25.672L142.41 24.0813L141.763 29.3373L154.665 30.928ZM155.313 25.672L168.215 27.2627C168.327 26.3547 168.572 25.9841 168.883 25.6537L159.417 16.744L149.95 7.83426C145.653 12.3999 143.163 17.9813 142.41 24.0813L155.313 25.672ZM159.417 16.744L168.878 25.6594C168.7 25.8481 168.514 25.995 168.352 26.0974C168.195 26.1968 168.11 26.2226 168.146 26.21C168.245 26.1755 168.831 26 170.145 26V13V-3.8147e-06C163.229 -3.8147e-06 155.615 1.82245 149.956 7.82858L159.417 16.744ZM170.145 13V26C170.715 26 171.677 26.073 173.112 26.3464L175.545 13.576L177.977 0.805588C175.381 0.311008 172.743 -3.8147e-06 170.145 -3.8147e-06V13ZM175.545 13.576L173.167 26.3567C173.835 26.4809 174.309 26.6751 174.682 26.8931L181.233 15.664L187.783 4.43487C184.701 2.63691 181.383 1.43909 177.923 0.795303L175.545 13.576ZM181.233 15.664L168.255 16.4274L168.759 24.9954L181.737 24.232L194.714 23.4686L194.21 14.9006L181.233 15.664ZM181.737 24.232L180.335 11.3078L174.359 11.9558L175.761 24.88L177.162 37.8042L183.138 37.1562L181.737 24.232ZM175.761 24.88L188.579 22.7135L187.715 17.6015L174.897 19.768L162.079 21.9344L162.943 27.0464L175.761 24.88ZM174.897 19.768L179.725 7.6978C178.494 7.20535 177.251 6.84832 176.178 6.58014L173.025 19.192L169.872 31.8038C170.076 31.8549 170.196 31.8898 170.246 31.9051C170.269 31.9122 170.265 31.9116 170.239 31.9025C170.213 31.8935 170.155 31.8726 170.069 31.8382L174.897 19.768ZM173.025 19.192L177.136 6.85911C174.636 6.02587 172.214 5.83199 170.289 5.83199V18.832V31.832C170.382 31.832 170.309 31.8378 170.105 31.8109C169.906 31.7847 169.484 31.7148 168.914 31.5249L173.025 19.192ZM170.289 18.832V5.83199C166.48 5.83199 159.493 6.50129 154.647 12.2705L164.601 20.632L174.555 28.9935C173.096 30.7306 171.478 31.4303 170.701 31.6762C169.986 31.9025 169.739 31.832 170.289 31.832V18.832ZM164.601 20.632L154.614 12.3096C151.525 16.0168 150.311 20.3147 149.888 23.9545L162.801 25.456L175.714 26.9575C175.771 26.4693 175.757 27.5512 174.588 28.9544L164.601 20.632ZM162.801 25.456L149.912 23.7601L149.192 29.2321L162.081 30.928L174.97 32.6239L175.69 27.1519L162.801 25.456ZM162.081 30.928V43.928H181.305V30.928V17.928H162.081V30.928ZM191.185 30.928V17.928H186.376L182.725 21.0577L191.185 30.928ZM200.473 30.928L213.465 30.48L213.033 17.928H200.473V30.928ZM200.689 37.192L187.697 37.64L189.394 86.8621L212.21 43.2143L200.689 37.192ZM204.937 32.152L212.549 42.6908V42.6908L204.937 32.152ZM220.633 41.872L233.539 43.4327L233.54 43.427L220.633 41.872ZM218.761 57.352L205.855 55.7913L204.094 70.352H218.761V57.352ZM223.441 57.352L236.327 59.0701L238.29 44.352H223.441V57.352ZM222.865 61.672L231.077 71.75L235.07 68.4962L235.751 63.3901L222.865 61.672ZM220.921 63.256V76.256H225.547L229.133 73.334L220.921 63.256ZM210.697 63.256L197.796 61.6559L195.985 76.256H210.697V63.256ZM213.001 44.68L200.102 43.0675L200.1 43.0799L213.001 44.68ZM212.209 38.2L201.578 45.6814L201.645 45.7764L201.713 45.8702L212.209 38.2ZM202.417 38.776L212.598 46.8605L212.654 46.7888L212.71 46.7164L202.417 38.776ZM200.041 44.752H187.041L212.945 46.332L200.041 44.752ZM200.041 44.68H213.041L187.14 43.0799L200.041 44.68ZM197.737 63.256V76.256H209.224L210.638 64.8561L197.737 63.256ZM190.393 63.256L177.49 61.6696L175.697 76.256H190.393V63.256ZM193.633 36.904L206.536 38.4904L208.329 23.904H193.633V36.904ZM188.665 36.904L175.756 35.3724L174.032 49.904H188.665V36.904ZM189.169 32.656L180.709 22.7857L176.857 26.087L176.26 31.1244L189.169 32.656ZM191.185 30.928V43.928H200.473V30.928V17.928H191.185V30.928ZM200.473 30.928L187.481 31.376L187.697 37.64L200.689 37.192L213.681 36.744L213.465 30.48L200.473 30.928ZM200.689 37.192L212.21 43.2143C212.359 42.9286 212.472 42.7826 212.519 42.7261C212.563 42.6738 212.572 42.6736 212.549 42.6908L204.937 32.152L197.326 21.6132C193.777 24.1761 191.096 27.4825 189.168 31.1697L200.689 37.192ZM204.937 32.152L212.549 42.6908C212.182 42.9554 211.806 43.125 211.501 43.2152C211.214 43.3 211.109 43.28 211.273 43.28V30.28V17.28C206.526 17.28 201.63 18.5043 197.326 21.6132L204.937 32.152ZM211.273 30.28V43.28C211.39 43.28 211.123 43.2956 210.64 43.1093C210.128 42.9116 209.674 42.6016 209.353 42.2804L218.545 33.088L227.738 23.8956C223.116 19.274 217.23 17.28 211.273 17.28V30.28ZM218.545 33.088L209.353 42.2804C208.893 41.8202 208.53 41.3165 208.266 40.8225C208.007 40.338 207.881 39.9376 207.824 39.6944C207.72 39.2596 207.84 39.3714 207.726 40.317L220.633 41.872L233.54 43.427C234.245 37.5729 233.646 29.8038 227.738 23.8956L218.545 33.088ZM220.633 41.872L207.727 40.3113L205.855 55.7913L218.761 57.352L231.667 58.9127L233.539 43.4327L220.633 41.872ZM218.761 57.352V70.352H223.441V57.352V44.352H218.761V57.352ZM223.441 57.352L210.555 55.6339L209.979 59.9539L222.865 61.672L235.751 63.3901L236.327 59.0701L223.441 57.352ZM222.865 61.672L214.653 51.5939L212.709 53.1779L220.921 63.256L229.133 73.334L231.077 71.75L222.865 61.672ZM220.921 63.256V50.256H210.697V63.256V76.256H220.921V63.256ZM210.697 63.256L223.598 64.8561L225.902 46.2801L213.001 44.68L200.1 43.0799L197.796 61.6559L210.697 63.256ZM213.001 44.68L225.901 46.2924C226.341 42.7678 226.777 36.1017 222.705 30.5298L212.209 38.2L201.713 45.8702C200.433 44.1188 200.221 42.6068 200.187 42.3331C200.148 42.0126 200.212 42.1843 200.102 43.0676L213.001 44.68ZM212.209 38.2L222.841 30.7186C218.899 25.1179 212.937 23.256 207.889 23.256V36.256V49.256C207.474 49.256 206.427 49.1895 205.11 48.597C203.697 47.9608 202.458 46.9326 201.578 45.6814L212.209 38.2ZM207.889 36.256V23.256C202.008 23.256 196.172 25.5881 192.124 30.8356L202.417 38.776L212.71 46.7164C212.151 47.4418 211.298 48.186 210.195 48.694C209.134 49.1826 208.272 49.256 207.889 49.256V36.256ZM202.417 38.776L192.237 30.6915C189.255 34.446 187.676 38.7756 187.138 43.172L200.041 44.752L212.945 46.332C212.967 46.1464 212.987 46.1561 212.931 46.297C212.871 46.4477 212.762 46.653 212.598 46.8605L202.417 38.776ZM200.041 44.752H213.041V44.68H200.041H187.041V44.752H200.041ZM200.041 44.68L187.14 43.0799L184.836 61.6559L197.737 63.256L210.638 64.8561L212.942 46.2801L200.041 44.68ZM197.737 63.256V50.256H190.393V63.256V76.256H197.737V63.256ZM190.393 63.256L203.296 64.8424L206.536 38.4904L193.633 36.904L180.73 35.3176L177.49 61.6696L190.393 63.256ZM193.633 36.904V23.904H188.665V36.904V49.904H193.633V36.904ZM188.665 36.904L201.575 38.4356L202.079 34.1876L189.169 32.656L176.26 31.1244L175.756 35.3724L188.665 36.904ZM189.169 32.656L197.629 42.5263L199.645 40.7983L191.185 30.928L182.725 21.0577L180.709 22.7857L189.169 32.656ZM247.79 56.128L237.529 48.1468L237.435 48.2673L237.344 48.39L247.79 56.128ZM249.95 52.312L252.559 39.5764L241.393 37.2895L237.665 48.0596L249.95 52.312ZM255.926 53.536L268.698 55.9583L271.086 43.3711L258.535 40.8004L255.926 53.536ZM251.462 60.88L259.842 70.8188L259.898 70.7712L259.954 70.723L251.462 60.88ZM232.022 60.52L223.107 69.9813L223.2 70.0694L223.295 70.1557L232.022 60.52ZM232.814 36.04L222.663 27.919L222.656 27.9268L222.65 27.9347L232.814 36.04ZM253.334 32.656L245.534 43.056L245.666 43.1549L245.8 43.2504L253.334 32.656ZM253.982 44.968L244.92 35.6471L244.854 35.7109L244.79 35.7756L253.982 44.968ZM245.054 48.856L242.34 36.1425L242.235 36.1648L242.131 36.1889L245.054 48.856ZM240.95 49.648L242.668 62.534L242.845 62.5105L243.02 62.4821L240.95 49.648ZM236.342 50.224L234.823 37.313L222.89 38.7169L223.352 50.7236L236.342 50.224ZM237.926 56.056L227.224 63.4365L227.285 63.5248L227.348 63.6121L237.926 56.056ZM241.382 44.824L243.221 57.6933L243.653 57.6316L244.08 57.541L241.382 44.824ZM247.43 42.376L238.005 33.4222L237.884 33.5492L237.767 33.6795L247.43 42.376ZM247.502 36.544L240.005 47.1646L240.356 47.4125L240.723 47.6367L247.502 36.544ZM238.862 38.776L250.033 45.4253L250.067 45.3679L250.101 45.3101L238.862 38.776ZM236.558 45.616L223.67 43.9138L221.509 60.2719L237.919 58.5446L236.558 45.616ZM239.15 45.256L241.409 58.0582L241.771 57.9944L242.128 57.9104L239.15 45.256ZM242.822 58.072V71.072C247.31 71.072 253.845 69.7944 258.236 63.866L247.79 56.128L237.344 48.39C238.465 46.8759 239.885 45.9519 241.091 45.4798C241.647 45.2623 242.096 45.1631 242.381 45.1171C242.663 45.0714 242.822 45.072 242.822 45.072V58.072ZM247.79 56.128L258.052 64.1092C259.73 61.9516 261.24 59.4393 262.235 56.5644L249.95 52.312L237.665 48.0596C237.733 47.8644 237.785 47.7766 237.773 47.7982C237.76 47.8212 237.691 47.9383 237.529 48.1468L247.79 56.128ZM249.95 52.312L247.342 65.0476L253.318 66.2716L255.926 53.536L258.535 40.8004L252.559 39.5764L249.95 52.312ZM255.926 53.536L243.154 51.1137C243.166 51.0496 243.187 50.9704 243.219 50.8868C243.252 50.8034 243.284 50.7421 243.305 50.7076C243.326 50.6743 243.323 50.6855 243.277 50.7386C243.23 50.793 243.135 50.8948 242.97 51.037L251.462 60.88L259.954 70.723C264.296 66.9767 267.547 62.0292 268.698 55.9583L255.926 53.536ZM251.462 60.88L243.082 50.9412C243.257 50.7936 243.371 50.7714 243.259 50.8068C243.111 50.8537 242.628 50.976 241.67 50.976V63.976V76.976C247.956 76.976 254.466 75.3516 259.842 70.8188L251.462 60.88ZM241.67 63.976V50.976C241.017 50.976 240.747 50.8812 240.726 50.8735C240.71 50.8679 240.722 50.8708 240.745 50.8846C240.767 50.8983 240.77 50.9037 240.749 50.8843L232.022 60.52L223.295 70.1557C228.55 74.9148 235.016 76.976 241.67 76.976V63.976ZM232.022 60.52L240.938 51.0587C241.143 51.252 241.297 51.4499 241.401 51.6156C241.501 51.776 241.523 51.8563 241.506 51.8051C241.46 51.6731 241.278 51.0355 241.278 49.648H228.278H215.278C215.278 56.5684 217.054 64.2775 223.107 69.9813L232.022 60.52ZM228.278 49.648H241.278C241.278 47.0346 241.956 45.4262 242.978 44.1453L232.814 36.04L222.65 27.9347C217.624 34.2378 215.278 41.7014 215.278 49.648H228.278ZM232.814 36.04L242.965 44.161C243.327 43.7088 243.559 43.5871 243.681 43.5314C243.829 43.4629 244.299 43.28 245.342 43.28V30.28V17.28C236.447 17.28 228.403 20.7433 222.663 27.919L232.814 36.04ZM245.342 30.28V43.28C245.888 43.28 246.089 43.3474 246.047 43.335C246.026 43.3285 245.957 43.3058 245.856 43.2557C245.754 43.2051 245.643 43.138 245.534 43.056L253.334 32.656L261.134 22.256C256.316 18.6427 250.743 17.28 245.342 17.28V30.28ZM253.334 32.656L245.8 43.2504C245.442 42.9959 244.779 42.4023 244.246 41.3831C243.707 40.3533 243.574 39.4109 243.574 38.848H256.574H269.574C269.574 31.9364 266.365 25.9708 260.868 22.0616L253.334 32.656ZM256.574 38.848H243.574C243.574 38.4526 243.653 37.8216 243.955 37.1081C244.257 36.3957 244.651 35.9088 244.92 35.6471L253.982 44.968L263.044 54.2889C267.278 50.1729 269.574 44.7759 269.574 38.848H256.574ZM253.982 44.968L244.79 35.7756C245.439 35.1266 245.806 35.0608 245.3 35.2811C244.828 35.4867 243.897 35.8101 242.34 36.1425L245.054 48.856L247.768 61.5695C252.729 60.5105 258.772 58.5631 263.174 54.1604L253.982 44.968ZM245.054 48.856L242.131 36.1889C241.209 36.4016 240.13 36.6122 238.88 36.8139L240.95 49.648L243.02 62.4821C244.746 62.2038 246.403 61.8864 247.977 61.5231L245.054 48.856ZM240.95 49.648L239.232 36.762C237.866 36.9441 236.397 37.1279 234.823 37.313L236.342 50.224L237.861 63.135C239.551 62.9361 241.154 62.7359 242.668 62.534L240.95 49.648ZM236.342 50.224L223.352 50.7236C223.5 54.5794 224.347 59.2643 227.224 63.4365L237.926 56.056L248.628 48.6755C249.125 49.3966 249.306 49.9637 249.356 50.1466C249.402 50.3183 249.351 50.2134 249.332 49.7244L236.342 50.224ZM237.926 56.056L227.348 63.6121C231.627 69.6035 238.104 71.072 242.822 71.072V58.072V45.072C242.875 45.072 243.666 45.0721 244.82 45.5472C246.101 46.0746 247.467 47.0469 248.505 48.4999L237.926 56.056ZM241.382 44.824L244.08 57.541C246.085 57.1156 248.182 56.5537 250.148 55.7583C251.894 55.0515 254.732 53.6962 257.093 51.0725L247.43 42.376L237.767 33.6795C238.591 32.7646 239.355 32.243 239.743 32.0038C239.955 31.8727 240.121 31.7858 240.223 31.7355C240.326 31.6846 240.386 31.6602 240.393 31.6577C240.397 31.6561 240.265 31.7088 239.955 31.7976C239.652 31.8846 239.235 31.9902 238.685 32.1069L241.382 44.824ZM247.43 42.376L256.855 51.3297C259.452 48.596 261.798 44.5319 261.798 39.352H248.798H235.798C235.798 36.2841 237.232 34.236 238.005 33.4222L247.43 42.376ZM248.798 39.352H261.798C261.798 35.1517 260.249 29.0985 254.281 25.4513L247.502 36.544L240.723 47.6367C238.916 46.5325 237.513 44.9144 236.671 43.0898C235.897 41.4141 235.798 40.0135 235.798 39.352H248.798ZM247.502 36.544L254.999 25.9234C251.496 23.4507 247.664 22.68 244.406 22.68V35.68V48.68C243.645 48.68 241.876 48.4853 240.005 47.1646L247.502 36.544ZM244.406 35.68V22.68C237.538 22.68 231.278 25.9564 227.623 32.2419L238.862 38.776L250.101 45.3101C249.682 46.0301 248.849 47.0432 247.486 47.8041C246.152 48.5492 244.978 48.68 244.406 48.68V35.68ZM238.862 38.776L227.691 32.1267C225.508 35.7951 224.215 39.7865 223.67 43.9138L236.558 45.616L249.446 47.3182C249.573 46.3575 249.816 45.7889 250.033 45.4253L238.862 38.776ZM236.558 45.616L237.919 58.5446C239.101 58.4202 240.266 58.2599 241.409 58.0582L239.15 45.256L236.891 32.4538C236.402 32.54 235.84 32.6198 235.197 32.6874L236.558 45.616ZM239.15 45.256L242.128 57.9104C242.651 57.7873 243.008 57.7238 243.221 57.6933L241.382 44.824L239.544 31.9547C238.413 32.1162 237.281 32.3407 236.173 32.6016L239.15 45.256ZM301.188 22.144L291.64 30.9667L291.668 30.997L291.697 31.0271L301.188 22.144ZM299.532 55.912L308.999 64.8217L309.021 64.7987L309.042 64.7756L299.532 55.912ZM260.076 63.256L247.148 61.8951L245.636 76.256H260.076V63.256ZM260.796 56.416V43.416H249.093L247.868 55.0551L260.796 56.416ZM266.052 56.416V69.416H277.766L278.982 57.7652L266.052 56.416ZM269.508 23.296L282.438 24.6452L283.935 10.296H269.508V23.296ZM264.252 23.296L251.324 21.9351L249.812 36.296H264.252V23.296ZM264.972 16.456V3.45599H253.269L252.044 15.0951L264.972 16.456ZM293.772 51.52L303.379 60.2788V60.2788L293.772 51.52ZM277.068 23.296V10.296H265.354L264.138 21.9468L277.068 23.296ZM273.612 56.416L260.682 55.0668L259.185 69.416H273.612V56.416ZM285.492 16.456V29.456C290.141 29.456 291.367 30.6704 291.64 30.9667L301.188 22.144L310.736 13.3213C304.002 6.03363 294.763 3.45599 285.492 3.45599V16.456ZM301.188 22.144L291.697 31.0271C292.462 31.8446 293.444 33.4176 293.444 37.192H306.444H319.444C319.444 28.3904 316.923 19.9314 310.68 13.2609L301.188 22.144ZM306.444 37.192H293.444C293.444 41.8481 292.123 44.7948 290.022 47.0484L299.532 55.912L309.042 64.7756C316.158 57.1412 319.444 47.6079 319.444 37.192H306.444ZM299.532 55.912L290.066 47.0023C288.289 48.8896 285.758 50.256 281.028 50.256V63.256V76.256C291.754 76.256 301.559 72.7264 308.999 64.8217L299.532 55.912ZM281.028 63.256V50.256H260.076V63.256V76.256H281.028V63.256ZM260.076 63.256L273.005 64.6169L273.725 57.7769L260.796 56.416L247.868 55.0551L247.148 61.8951L260.076 63.256ZM260.796 56.416V69.416H266.052V56.416V43.416H260.796V56.416ZM266.052 56.416L278.982 57.7652L282.438 24.6452L269.508 23.296L256.578 21.9468L253.122 55.0668L266.052 56.416ZM269.508 23.296V10.296H264.252V23.296V36.296H269.508V23.296ZM264.252 23.296L277.181 24.6569L277.901 17.8169L264.972 16.456L252.044 15.0951L251.324 21.9351L264.252 23.296ZM264.972 16.456V29.456H285.492V16.456V3.45599H264.972V16.456ZM281.172 56.416V69.416C289.353 69.416 297.393 66.844 303.379 60.2788L293.772 51.52L284.166 42.7612C284.057 42.8801 283.951 42.9701 283.682 43.0746C283.355 43.2017 282.593 43.416 281.172 43.416V56.416ZM293.772 51.52L303.379 60.2788C309.152 53.9464 311.236 45.9156 311.236 37.912H298.236H285.236C285.236 41.5244 284.344 42.5656 284.166 42.7612L293.772 51.52ZM298.236 37.912H311.236C311.236 31.2578 309.706 23.8458 304.349 18.0916C298.828 12.1622 291.416 10.296 284.628 10.296V23.296V36.296C285.768 36.296 286.212 36.4531 286.2 36.4487C286.183 36.4425 286.061 36.3961 285.878 36.2788C285.693 36.159 285.498 35.9996 285.32 35.8084C284.937 35.3978 284.895 35.13 284.97 35.3707C285.061 35.6631 285.236 36.4436 285.236 37.912H298.236ZM284.628 23.296V10.296H277.068V23.296V36.296H284.628V23.296ZM277.068 23.296L264.138 21.9468L260.682 55.0668L273.612 56.416L286.542 57.7652L289.998 24.6452L277.068 23.296ZM273.612 56.416V69.416H281.172V56.416V43.416H273.612V56.416ZM359.512 30.928L371.999 34.5427L376.808 17.928H359.512V30.928ZM358 36.4L345.428 33.0916L345.387 33.2473L345.35 33.4039L358 36.4ZM357.064 41.872L369.962 43.4918L369.979 43.3625L369.992 43.2329L357.064 41.872ZM355.12 57.352L342.221 55.7322L340.385 70.352H355.12V57.352ZM359.512 57.352L372.424 58.8584L374.116 44.352H359.512V57.352ZM359.008 61.672L367.405 71.596L371.325 68.279L371.92 63.1784L359.008 61.672ZM357.136 63.256V76.256H361.898L365.533 73.18L357.136 63.256ZM348.208 63.256L335.211 63.5416L335.49 76.256H348.208V63.256ZM348.064 56.704L361.06 56.4184L336.493 50.7776L348.064 56.704ZM343.96 61.816L352.282 71.8029V71.8029L343.96 61.816ZM329.272 60.088L318.547 67.436L318.593 67.503L318.64 67.5694L329.272 60.088ZM328.12 41.368L340.472 45.421L340.481 45.3928L340.49 45.3646L328.12 41.368ZM332.872 33.52L341.96 42.8151L341.962 42.8128L332.872 33.52ZM350.872 36.328L338.583 40.5704L353.914 84.9779L363.593 39.0061L350.872 36.328ZM351.52 33.664L364.045 37.1434L364.069 37.058L364.092 36.9724L351.52 33.664ZM352.384 30.928V17.928H343.319L340.185 26.4338L352.384 30.928ZM336.4 40.504L348.338 45.6498L348.354 45.6129L348.369 45.5759L336.4 40.504ZM345.76 55.12L356.008 63.1185L356.054 63.0588L356.1 62.9986L345.76 55.12ZM348.784 48.856L361.474 51.6761L361.599 51.1157L361.673 50.5464L348.784 48.856ZM349.36 44.464L362.249 46.1544L362.328 45.5567L362.35 44.9542L349.36 44.464ZM347.488 38.488L337.685 47.0261L337.831 47.1947L337.984 47.3581L347.488 38.488ZM359.512 30.928L347.024 27.3132C346.467 29.2383 345.935 31.1644 345.428 33.0916L358 36.4L370.572 39.7084C371.024 37.9876 371.5 36.2657 371.999 34.5427L359.512 30.928ZM358 36.4L345.35 33.4039C344.793 35.7547 344.386 38.1247 344.135 40.5111L357.064 41.872L369.992 43.2329C370.125 41.9713 370.342 40.6933 370.65 39.3961L358 36.4ZM357.064 41.872L344.165 40.2522L342.221 55.7322L355.12 57.352L368.018 58.9718L369.962 43.4918L357.064 41.872ZM355.12 57.352V70.352H359.512V57.352V44.352H355.12V57.352ZM359.512 57.352L346.599 55.8456L346.095 60.1656L359.008 61.672L371.92 63.1784L372.424 58.8584L359.512 57.352ZM359.008 61.672L350.61 51.748L348.738 53.332L357.136 63.256L365.533 73.18L367.405 71.596L359.008 61.672ZM357.136 63.256V50.256H348.208V63.256V76.256H357.136V63.256ZM348.208 63.256L361.204 62.9704L361.06 56.4184L348.064 56.704L335.067 56.9896L335.211 63.5416L348.208 63.256ZM348.064 56.704L336.493 50.7776C336.297 51.1598 336.044 51.4902 335.637 51.8291L343.96 61.816L352.282 71.8029C355.331 69.2618 357.814 66.1842 359.634 62.6304L348.064 56.704ZM343.96 61.816L335.637 51.8291C336.082 51.4587 336.565 51.211 336.977 51.0765C337.361 50.9514 337.522 50.976 337.336 50.976V63.976V76.976C342.446 76.976 347.783 75.5523 352.282 71.8029L343.96 61.816ZM337.336 63.976V50.976C337.146 50.976 337.58 50.9463 338.301 51.294C339.077 51.6678 339.622 52.2077 339.903 52.6066L329.272 60.088L318.64 67.5694C323.221 74.0795 330.146 76.976 337.336 76.976V63.976ZM329.272 60.088L339.996 52.74C339.993 52.7359 339.975 52.71 339.947 52.6486C339.919 52.5859 339.873 52.471 339.824 52.2885C339.724 51.9179 339.608 51.2599 339.608 50.224H326.608H313.608C313.608 56.1281 314.936 62.1653 318.547 67.436L329.272 60.088ZM326.608 50.224H339.608C339.608 48.9482 339.833 47.367 340.472 45.421L328.12 41.368L315.768 37.315C314.39 41.513 313.608 45.8357 313.608 50.224H326.608ZM328.12 41.368L340.49 45.3646C340.906 44.0756 341.434 43.3296 341.96 42.8151L332.872 33.52L323.783 24.2249C319.989 27.9344 317.349 32.4204 315.749 37.3714L328.12 41.368ZM332.872 33.52L341.962 42.8128C341.878 42.8951 341.762 42.9914 341.617 43.0828C341.473 43.1742 341.34 43.2364 341.237 43.2746C341.025 43.3535 341.084 43.28 341.584 43.28V30.28V17.28C335.191 17.28 328.819 19.2985 323.781 24.2271L332.872 33.52ZM341.584 30.28V43.28C342.208 43.28 341.521 43.4085 340.412 42.686C339.867 42.3315 339.409 41.8879 339.068 41.4289C338.741 40.9871 338.612 40.6541 338.583 40.5704L350.872 36.328L363.16 32.0856C361.673 27.778 358.935 23.7211 354.599 20.898C350.394 18.1595 345.759 17.28 341.584 17.28V30.28ZM350.872 36.328L363.593 39.0061C363.73 38.3527 363.882 37.7323 364.045 37.1434L351.52 33.664L338.994 30.1846C338.677 31.3237 338.397 32.4793 338.15 33.6499L350.872 36.328ZM351.52 33.664L364.092 36.9724C364.223 36.4734 364.385 35.9569 364.582 35.4222L352.384 30.928L340.185 26.4338C339.71 27.7231 339.296 29.0306 338.948 30.3556L351.52 33.664ZM352.384 30.928V43.928H359.512V30.928V17.928H352.384V30.928ZM342.664 36.256V23.256C339.052 23.256 335.13 24.1437 331.569 26.5588C328.038 28.9537 325.792 32.2185 324.43 35.4321L336.4 40.504L348.369 45.5759C348.208 45.9575 347.606 47.0983 346.162 48.0772C344.689 49.0763 343.3 49.256 342.664 49.256V36.256ZM336.4 40.504L324.461 35.3582C322.551 39.7894 321.6 44.4706 321.6 49.288H334.6H347.6C347.6 47.9614 347.848 46.7865 348.338 45.6498L336.4 40.504ZM334.6 49.288H321.6C321.6 53.1639 322.135 58.2883 324.992 62.8145C328.484 68.3479 334.196 71.072 340.144 71.072V58.072V45.072C340.957 45.072 342.303 45.2427 343.789 46.0277C345.312 46.8322 346.357 47.9522 346.979 48.9375C347.269 49.3968 347.44 49.7827 347.537 50.0368C347.632 50.2895 347.665 50.4407 347.668 50.4546C347.668 50.4558 347.6 50.1082 347.6 49.288H334.6ZM340.144 58.072V71.072C346.915 71.072 352.374 67.7742 356.008 63.1185L345.76 55.12L335.511 47.1215C335.676 46.9105 336.19 46.3341 337.155 45.8269C338.167 45.2946 339.236 45.072 340.144 45.072V58.072ZM345.76 55.12L356.1 62.9986C358.611 59.7035 360.531 55.9215 361.474 51.6761L348.784 48.856L336.093 46.0359C336.077 46.1104 335.98 46.5045 335.419 47.2414L345.76 55.12ZM348.784 48.856L361.673 50.5464L362.249 46.1544L349.36 44.464L336.47 42.7736L335.894 47.1656L348.784 48.856ZM349.36 44.464L362.35 44.9542C362.537 40.0081 361.334 34.2703 356.991 29.6179L347.488 38.488L337.984 47.3581C337.249 46.5705 336.792 45.6962 336.558 44.9481C336.342 44.2574 336.373 43.8688 336.369 43.9738L349.36 44.464ZM347.488 38.488L357.291 29.9498C353.604 25.7172 348.46 23.256 342.664 23.256V36.256V49.256C341.898 49.256 340.897 49.0965 339.851 48.6123C338.813 48.1323 338.102 47.5049 337.685 47.0261L347.488 38.488ZM365.462 32.872L356.604 23.3574L353.242 26.4869L352.593 31.0335L365.462 32.872ZM367.55 30.928V17.928H362.435L358.692 21.4134L367.55 30.928ZM370.358 30.928V43.928H381.848L383.26 32.5253L370.358 30.928ZM371.294 23.368L361.966 14.3138L358.929 17.443L358.393 21.7707L371.294 23.368ZM373.67 20.92V7.92H368.172L364.342 11.8658L373.67 20.92ZM378.998 20.92L391.902 22.4982L393.685 7.92H378.998V20.92ZM377.774 30.928L364.87 29.3498L363.087 43.928H377.774V30.928ZM387.926 30.928L400.791 32.7992L402.954 17.928H387.926V30.928ZM387.35 34.888L396.38 44.2402L399.576 41.1549L400.215 36.7592L387.35 34.888ZM385.262 36.904V49.904H390.514L394.292 46.2562L385.262 36.904ZM377.054 36.904V23.904H365.533L364.148 35.3414L377.054 36.904ZM375.11 52.96L388.007 54.5948L388.012 54.5587L388.016 54.5226L375.11 52.96ZM382.67 52.096L386.882 39.7972L373.668 35.272L370.101 48.7759L382.67 52.096ZM387.926 53.896L400.507 57.1705L403.544 45.5033L392.138 41.5972L387.926 53.896ZM384.038 61.6L393.092 70.9286L393.096 70.9246L384.038 61.6ZM369.566 61.24L360.129 70.1807L360.19 70.2453L360.252 70.309L369.566 61.24ZM367.622 53.608L380.51 55.3137L380.52 55.2397L380.529 55.1657L367.622 53.608ZM369.638 36.904L382.545 38.4617L384.302 23.904H369.638V36.904ZM364.886 36.904L352.017 35.0655L349.897 49.904H364.886V36.904ZM365.462 32.872L374.321 42.3866L376.409 40.4426L367.55 30.928L358.692 21.4134L356.604 23.3574L365.462 32.872ZM367.55 30.928V43.928H370.358V30.928V17.928H367.55V30.928ZM370.358 30.928L383.26 32.5253L384.196 24.9653L371.294 23.368L358.393 21.7707L357.457 29.3307L370.358 30.928ZM371.294 23.368L380.623 32.4222L382.999 29.9742L373.67 20.92L364.342 11.8658L361.966 14.3138L371.294 23.368ZM373.67 20.92V33.92H378.998V20.92V7.92H373.67V20.92ZM378.998 20.92L366.094 19.3418L364.87 29.3498L377.774 30.928L390.678 32.5062L391.902 22.4982L378.998 20.92ZM377.774 30.928V43.928H387.926V30.928V17.928H377.774V30.928ZM387.926 30.928L375.062 29.0568L374.486 33.0168L387.35 34.888L400.215 36.7592L400.791 32.7992L387.926 30.928ZM387.35 34.888L378.321 25.5358L376.233 27.5518L385.262 36.904L394.292 46.2562L396.38 44.2402L387.35 34.888ZM385.262 36.904V23.904H377.054V36.904V49.904H385.262V36.904ZM377.054 36.904L364.148 35.3414L362.205 51.3974L375.11 52.96L388.016 54.5226L389.96 38.4666L377.054 36.904ZM375.11 52.96L362.214 51.3252C361.886 53.9066 361.626 58.5594 364.094 63.0528C367.311 68.9085 373.073 71.072 377.918 71.072V58.072V45.072C378.917 45.072 380.616 45.2568 382.498 46.2467C384.493 47.296 385.969 48.872 386.882 50.5352C388.415 53.3246 387.902 55.4214 388.007 54.5948L375.11 52.96ZM377.918 58.072V71.072C382.708 71.072 386.486 68.9931 389.039 66.7399L380.438 56.992L371.837 47.2441C372.759 46.4309 374.857 45.072 377.918 45.072V58.072ZM380.438 56.992L389.039 66.7399C391.425 64.6348 392.737 62.1559 393.437 60.6205C394.219 58.9055 394.794 57.1026 395.239 55.4161L382.67 52.096L370.101 48.7759C369.875 49.6334 369.742 49.9185 369.779 49.8355C369.805 49.7788 369.934 49.5006 370.203 49.0954C370.462 48.7055 370.979 48.0011 371.837 47.2441L380.438 56.992ZM382.67 52.096L378.458 64.3948L383.714 66.1948L387.926 53.896L392.138 41.5972L386.882 39.7972L382.67 52.096ZM387.926 53.896L375.345 50.6215C375.065 51.6986 374.806 52.3121 374.664 52.5929C374.524 52.8709 374.579 52.6653 374.98 52.2754L384.038 61.6L393.096 70.9246C397.172 66.9659 399.297 61.8214 400.507 57.1705L387.926 53.896ZM384.038 61.6L374.984 52.2714C375.636 51.6387 376.336 51.2684 376.86 51.0881C377.331 50.9262 377.484 50.976 377.126 50.976V63.976V76.976C382.403 76.976 388.357 75.5249 393.092 70.9285L384.038 61.6ZM377.126 63.976V50.976C376.685 50.976 376.783 50.9124 377.212 51.0679C377.7 51.2444 378.326 51.6011 378.88 52.171L369.566 61.24L360.252 70.309C365.117 75.3053 371.395 76.976 377.126 76.976V63.976ZM369.566 61.24L379.004 52.2993C379.734 53.0705 380.184 53.9783 380.382 54.7551C380.556 55.4388 380.458 55.7059 380.51 55.3137L367.622 53.608L354.735 51.9023C353.96 57.7549 354.916 64.6784 360.129 70.1807L369.566 61.24ZM367.622 53.608L380.529 55.1657L382.545 38.4617L369.638 36.904L356.732 35.3463L354.716 52.0503L367.622 53.608ZM369.638 36.904V23.904H364.886V36.904V49.904H369.638V36.904ZM364.886 36.904L377.756 38.7425L378.332 34.7105L365.462 32.872L352.593 31.0335L352.017 35.0655L364.886 36.904ZM439.324 16.456V3.45599H427.497L426.382 15.2299L439.324 16.456ZM456.46 16.456L469.388 17.8169L470.9 3.45599H456.46V16.456ZM455.74 23.296V36.296H467.443L468.668 24.6569L455.74 23.296ZM451.492 23.296V10.296H439.78L438.562 21.9445L451.492 23.296ZM449.332 43.96L436.402 42.6085L436.4 42.6282L436.398 42.6479L449.332 43.96ZM446.74 53.536L434.898 48.1705L434.879 48.2133L434.86 48.2562L446.74 53.536ZM440.476 61.024L433.057 50.3485V50.3485L440.476 61.024ZM415.132 58.144L404.192 65.167V65.167L415.132 58.144ZM412.18 44.752L425.109 46.1065L425.11 46.0971L412.18 44.752ZM414.412 23.296L427.342 24.6411L428.834 10.296H414.412V23.296ZM410.164 23.296L397.235 21.9351L395.723 36.296H410.164V23.296ZM410.884 16.456V3.45599H399.18L397.955 15.0951L410.884 16.456ZM428.452 16.456L441.38 17.8169L442.892 3.45599H428.452V16.456ZM427.732 23.296V36.296H439.435L440.66 24.6569L427.732 23.296ZM422.116 23.296V10.296H410.41L409.187 21.9374L422.116 23.296ZM419.884 44.536L406.955 43.1774L406.954 43.185L406.953 43.1926L419.884 44.536ZM421.54 53.536L410.619 60.5888L410.653 60.6414L410.688 60.6937L421.54 53.536ZM438.46 53.536L428.777 44.8618L428.771 44.8677L428.766 44.8737L438.46 53.536ZM442.204 43.96L455.131 45.3288L455.132 45.3202L455.133 45.3115L442.204 43.96ZM444.364 23.296L457.293 24.6475L458.793 10.296H444.364V23.296ZM438.676 23.296L425.734 22.0699L424.386 36.296H438.676V23.296ZM439.324 16.456V29.456H456.46V16.456V3.45599H439.324V16.456ZM456.46 16.456L443.531 15.0951L442.811 21.9351L455.74 23.296L468.668 24.6569L469.388 17.8169L456.46 16.456ZM455.74 23.296V10.296H451.492V23.296V36.296H455.74V23.296ZM451.492 23.296L438.562 21.9445L436.402 42.6085L449.332 43.96L462.261 45.3115L464.421 24.6475L451.492 23.296ZM449.332 43.96L436.398 42.6479C436.206 44.5399 435.717 46.3644 434.898 48.1705L446.74 53.536L458.581 58.9015C460.546 54.5636 461.785 50.0041 462.265 45.2721L449.332 43.96ZM446.74 53.536L434.86 48.2562C434.523 49.0136 434.023 49.6775 433.057 50.3485L440.476 61.024L447.894 71.6995C452.592 68.4345 456.268 64.1064 458.619 58.8158L446.74 53.536ZM440.476 61.024L433.057 50.3485C433.052 50.3519 433.001 50.3873 432.88 50.4413C432.757 50.4962 432.551 50.5746 432.242 50.6548C431.61 50.8187 430.599 50.976 429.1 50.976V63.976V76.976C435.528 76.976 442.201 75.6555 447.894 71.6994L440.476 61.024ZM429.1 63.976V50.976C426.843 50.976 425.794 50.6427 425.504 50.5217C425.389 50.4735 425.461 50.4877 425.624 50.6205C425.795 50.7598 425.955 50.9398 426.071 51.121L415.132 58.144L404.192 65.167C410.086 74.3479 420.115 76.976 429.1 76.976V63.976ZM415.132 58.144L426.071 51.121C425.328 49.9631 424.857 48.512 425.109 46.1065L412.18 44.752L399.25 43.3975C398.446 51.072 399.943 58.5489 404.192 65.167L415.132 58.144ZM412.18 44.752L425.11 46.0971L427.342 24.6411L414.412 23.296L401.481 21.9509L399.249 43.4069L412.18 44.752ZM414.412 23.296V10.296H410.164V23.296V36.296H414.412V23.296ZM410.164 23.296L423.092 24.6569L423.812 17.8169L410.884 16.456L397.955 15.0951L397.235 21.9351L410.164 23.296ZM410.884 16.456V29.456H428.452V16.456V3.45599H410.884V16.456ZM428.452 16.456L415.523 15.0951L414.803 21.9351L427.732 23.296L440.66 24.6569L441.38 17.8169L428.452 16.456ZM427.732 23.296V10.296H422.116V23.296V36.296H427.732V23.296ZM422.116 23.296L409.187 21.9374L406.955 43.1774L419.884 44.536L432.812 45.8946L435.044 24.6546L422.116 23.296ZM419.884 44.536L406.953 43.1926C406.371 48.7935 407.036 55.0407 410.619 60.5888L421.54 53.536L432.46 46.4832C432.591 46.6852 432.678 46.8688 432.733 47.0108C432.786 47.1499 432.798 47.223 432.795 47.2055C432.786 47.1557 432.723 46.7531 432.814 45.8794L419.884 44.536ZM421.54 53.536L410.688 60.6937C415.56 68.0811 423.511 69.92 429.676 69.92V56.92V43.92C428.871 43.92 429.017 43.7942 429.682 44.0709C430.042 44.2205 430.525 44.4773 431.041 44.8935C431.565 45.3154 432.025 45.8229 432.392 46.3783L421.54 53.536ZM429.676 56.92V69.92C436.151 69.92 443.04 67.9204 448.153 62.1983L438.46 53.536L428.766 44.8737C428.953 44.6649 429.179 44.463 429.434 44.2888C429.687 44.1157 429.914 44.0065 430.078 43.9431C430.398 43.82 430.344 43.92 429.676 43.92V56.92ZM438.46 53.536L448.142 62.2102C452.54 57.3011 454.505 51.2466 455.131 45.3288L442.204 43.96L429.276 42.5912C429.038 44.8334 428.507 45.1629 428.777 44.8618L438.46 53.536ZM442.204 43.96L455.133 45.3115L457.293 24.6475L444.364 23.296L431.434 21.9445L429.274 42.6085L442.204 43.96ZM444.364 23.296V10.296H438.676V23.296V36.296H444.364V23.296ZM438.676 23.296L451.618 24.5221L452.266 17.6821L439.324 16.456L426.382 15.2299L425.734 22.0699L438.676 23.296ZM496.459 58.792L505.112 68.4938L508.333 65.6214L509.196 61.3932L496.459 58.792ZM489.043 62.608L492.639 75.1006L492.726 75.0756L492.813 75.0493L489.043 62.608ZM464.491 57.856L454.686 66.392V66.392L464.491 57.856ZM461.827 30.064L449.936 24.8099L449.922 24.8426L449.907 24.8754L461.827 30.064ZM470.179 19.84L477.761 30.4002L477.773 30.3913L477.785 30.3823L470.179 19.84ZM494.299 17.464L489.019 29.3435L489.151 29.402L489.284 29.4575L494.299 17.464ZM500.347 21.28L513.346 21.0956L513.273 15.9469L509.694 12.2447L500.347 21.28ZM500.491 31.432L501.77 44.3689L513.659 43.1931L513.49 31.2476L500.491 31.432ZM493.939 32.08L480.968 32.9447L481.861 46.338L495.218 45.0169L493.939 32.08ZM493.507 25.6L506.478 24.7353L506.072 18.6386L501.118 15.0612L493.507 25.6ZM490.339 54.904L496.412 66.3985L501.427 63.7488L502.896 58.2697L490.339 54.904ZM492.211 47.92L493.534 34.9875L482.52 33.8611L479.654 44.5543L492.211 47.92ZM498.547 48.568L511.284 51.1692L514.158 37.0968L499.87 35.6355L498.547 48.568ZM496.459 58.792L487.806 49.0902C487.878 49.0262 487.296 49.5537 485.273 50.1667L489.043 62.608L492.813 75.0493C497.126 73.7423 501.488 71.7258 505.112 68.4938L496.459 58.792ZM489.043 62.608L485.447 50.1154C483.363 50.7153 481.453 50.976 479.683 50.976V63.976V76.976C484.057 76.976 488.387 76.3247 492.639 75.1006L489.043 62.608ZM479.683 63.976V50.976C475.983 50.976 474.852 49.9591 474.296 49.32L464.491 57.856L454.686 66.392C461.234 73.9129 470.231 76.976 479.683 76.976V63.976ZM464.491 57.856L474.296 49.32C473.067 47.9089 472.163 45.9759 472.163 42.592H459.163H446.163C446.163 51.4001 448.811 59.6431 454.686 66.392L464.491 57.856ZM459.163 42.592H472.163C472.163 40.1797 472.653 37.7652 473.747 35.2526L461.827 30.064L449.907 24.8754C447.449 30.5228 446.163 36.4603 446.163 42.592H459.163ZM461.827 30.064L473.718 35.3181C474.584 33.3584 475.859 31.7658 477.761 30.4002L470.179 19.84L462.597 9.27979C457.011 13.2902 452.718 18.5136 449.936 24.8099L461.827 30.064ZM470.179 19.84L477.785 30.3823C478.859 29.6081 480.83 28.736 484.651 28.736V15.736V2.736C476.76 2.736 469.083 4.59989 462.572 9.29765L470.179 19.84ZM484.651 15.736V28.736C487.279 28.736 488.567 29.1425 489.019 29.3435L494.299 17.464L499.579 5.58444C494.847 3.48151 489.703 2.736 484.651 2.736V15.736ZM494.299 17.464L489.284 29.4575C490.064 29.784 490.564 30.0578 490.854 30.2405C491.144 30.4236 491.147 30.4677 491 30.3153L500.347 21.28L509.694 12.2447C506.667 9.11301 502.939 6.98601 499.314 5.47046L494.299 17.464ZM500.347 21.28L487.348 21.4644L487.492 31.6164L500.491 31.432L513.49 31.2476L513.346 21.0956L500.347 21.28ZM500.491 31.432L499.211 18.4951L492.659 19.1431L493.939 32.08L495.218 45.0169L501.77 44.3689L500.491 31.432ZM493.939 32.08L506.91 31.2152L506.478 24.7353L493.507 25.6L480.536 26.4647L480.968 32.9447L493.939 32.08ZM493.507 25.6L501.118 15.0612C495.868 11.2695 489.806 9.79199 483.787 9.79199V22.792V35.792C484.692 35.792 485.241 35.9012 485.525 35.9833C485.788 36.0592 485.877 36.1255 485.896 36.1388L493.507 25.6ZM483.787 22.792V9.79199C475.612 9.79199 468.035 12.7204 462.307 18.9945L471.907 27.76L481.507 36.5255C481.827 36.1756 482.17 35.792 483.787 35.792V22.792ZM471.907 27.76L462.307 18.9945C456.445 25.4147 454.371 33.5998 454.371 41.728H467.371H480.371C480.371 37.8562 481.321 36.7293 481.507 36.5255L471.907 27.76ZM467.371 41.728H454.371C454.371 48.4936 455.874 55.9946 461.171 61.8463C466.691 67.9437 474.183 69.92 481.123 69.92V56.92V43.92C479.994 43.92 479.569 43.7604 479.599 43.7713C479.703 43.8098 480.082 43.9946 480.447 44.3977C480.786 44.7728 480.782 44.971 480.676 44.6191C480.556 44.2204 480.371 43.3209 480.371 41.728H467.371ZM481.123 56.92V69.92C486.318 69.92 491.584 68.949 496.412 66.3985L490.339 54.904L484.266 43.4095C484.006 43.547 483.128 43.92 481.123 43.92V56.92ZM490.339 54.904L502.896 58.2697L504.768 51.2857L492.211 47.92L479.654 44.5543L477.782 51.5383L490.339 54.904ZM492.211 47.92L490.888 60.8525L497.224 61.5005L498.547 48.568L499.87 35.6355L493.534 34.9875L492.211 47.92ZM498.547 48.568L485.81 45.9668L483.722 56.1908L496.459 58.792L509.196 61.3932L511.284 51.1692L498.547 48.568ZM504.384 56.416V43.416H492.681L491.455 55.0551L504.384 56.416ZM509.568 56.416V69.416H521.282L522.498 57.7652L509.568 56.416ZM513.024 23.296L525.954 24.6452L527.451 10.296H513.024V23.296ZM507.84 23.296L494.911 21.9351L493.4 36.296H507.84V23.296ZM508.56 16.456V3.45599H496.857L495.631 15.0951L508.56 16.456ZM541.176 37.84L531.276 29.4145L531.268 29.4238L531.26 29.4331L541.176 37.84ZM533.328 42.736L529.43 30.3341L515.865 34.5974L521.324 47.727L533.328 42.736ZM539.016 56.416L527.012 61.407L530.342 69.416H539.016V56.416ZM544.56 56.416L557.489 57.7769L559 43.416H544.56V56.416ZM543.84 63.256V76.256H555.543L556.769 64.6169L543.84 63.256ZM533.256 63.256L521.157 68.0109L524.397 76.256H533.256V63.256ZM525.984 44.752L538.083 39.9971L534.843 31.752H525.984V44.752ZM518.496 44.752V31.752H506.789L505.567 43.3952L518.496 44.752ZM517.272 56.416L504.343 55.0592L502.836 69.416H517.272V56.416ZM522.6 56.416L535.529 57.7769L537.04 43.416H522.6V56.416ZM521.88 63.256V76.256H533.583L534.809 64.6169L521.88 63.256ZM503.664 63.256L490.735 61.8951L489.224 76.256H503.664V63.256ZM533.4 35.968L524.071 26.9138L524.067 26.9181L533.4 35.968ZM533.616 24.736L526.236 35.4378L526.32 35.4959L526.405 35.5527L533.616 24.736ZM520.728 23.296V10.296H509.025L507.799 21.9351L520.728 23.296ZM519.144 38.344L506.215 36.9831L504.704 51.344H519.144V38.344ZM504.384 56.416V69.416H509.568V56.416V43.416H504.384V56.416ZM509.568 56.416L522.498 57.7652L525.954 24.6452L513.024 23.296L500.094 21.9468L496.638 55.0668L509.568 56.416ZM513.024 23.296V10.296H507.84V23.296V36.296H513.024V23.296ZM507.84 23.296L520.769 24.6569L521.489 17.8169L508.56 16.456L495.631 15.0951L494.911 21.9351L507.84 23.296ZM508.56 16.456V29.456H528.432V16.456V3.45599H508.56V16.456ZM528.432 16.456V29.456C530.107 29.456 531.123 29.6402 531.649 29.7896C532.139 29.9288 532.06 29.994 531.756 29.74L540.096 19.768L548.436 9.79599C542.545 4.869 535.168 3.45599 528.432 3.45599V16.456ZM540.096 19.768L531.756 29.74C531.681 29.6773 531.559 29.5605 531.429 29.386C531.297 29.2102 531.194 29.0269 531.122 28.8602C530.973 28.5137 531.056 28.4724 531.056 28.984H544.056H557.056C557.056 21.8168 554.473 14.8453 548.436 9.79599L540.096 19.768ZM544.056 28.984H531.056C531.056 29.6758 530.965 29.9404 530.973 29.9136C530.978 29.8989 531.003 29.8297 531.06 29.7264C531.117 29.6219 531.191 29.5139 531.276 29.4145L541.176 37.84L551.076 46.2655C555.43 41.1498 557.056 34.9788 557.056 28.984H544.056ZM541.176 37.84L531.26 29.4331C531.249 29.4462 531.17 29.5399 530.929 29.6903C530.675 29.8491 530.208 30.0898 529.43 30.3341L533.328 42.736L537.226 55.1379C542.419 53.5059 547.318 50.6983 551.092 46.2469L541.176 37.84ZM533.328 42.736L521.324 47.727L527.012 61.407L539.016 56.416L551.02 51.425L545.332 37.745L533.328 42.736ZM539.016 56.416V69.416H544.56V56.416V43.416H539.016V56.416ZM544.56 56.416L531.631 55.0551L530.911 61.8951L543.84 63.256L556.769 64.6169L557.489 57.7769L544.56 56.416ZM543.84 63.256V50.256H533.256V63.256V76.256H543.84V63.256ZM533.256 63.256L545.355 58.5011L538.083 39.9971L525.984 44.752L513.885 49.5069L521.157 68.0109L533.256 63.256ZM525.984 44.752V31.752H518.496V44.752V57.752H525.984V44.752ZM518.496 44.752L505.567 43.3952L504.343 55.0592L517.272 56.416L530.201 57.7727L531.425 46.1087L518.496 44.752ZM517.272 56.416V69.416H522.6V56.416V43.416H517.272V56.416ZM522.6 56.416L509.671 55.0551L508.951 61.8951L521.88 63.256L534.809 64.6169L535.529 57.7769L522.6 56.416ZM521.88 63.256V50.256H503.664V63.256V76.256H521.88V63.256ZM503.664 63.256L516.593 64.6169L517.313 57.7769L504.384 56.416L491.455 55.0551L490.735 61.8951L503.664 63.256ZM525.048 38.344V51.344C529.946 51.344 537.372 50.5457 542.733 45.0179L533.4 35.968L524.067 26.9181C525.309 25.6378 526.465 25.2852 526.603 25.2461C526.69 25.2213 526.618 25.2498 526.338 25.2824C526.061 25.3145 525.639 25.344 525.048 25.344V38.344ZM533.4 35.968L542.729 45.0222C546.954 40.6683 548.776 35.1923 548.776 29.704H535.776H522.776C522.776 29.6176 522.792 29.1865 523.027 28.5675C523.272 27.9218 523.651 27.3466 524.071 26.9138L533.4 35.968ZM535.776 29.704H548.776C548.776 24.7226 547.111 18.1084 540.827 13.9193L533.616 24.736L526.405 35.5527C524.953 34.5847 523.905 33.2402 523.314 31.8814C522.783 30.6595 522.776 29.7961 522.776 29.704H535.776ZM533.616 24.736L540.997 14.0342C536.137 10.6831 530.249 10.296 526.416 10.296V23.296V36.296C526.969 36.296 527.396 36.3157 527.712 36.3418C528.032 36.3683 528.193 36.3976 528.223 36.4035C528.258 36.4106 528.085 36.3797 527.768 36.2592C527.452 36.1394 526.898 35.8948 526.236 35.4378L533.616 24.736ZM526.416 23.296V10.296H520.728V23.296V36.296H526.416V23.296ZM520.728 23.296L507.799 21.9351L506.215 36.9831L519.144 38.344L532.073 39.7049L533.657 24.6569L520.728 23.296ZM519.144 38.344V51.344H525.048V38.344V25.344H519.144V38.344Z" fill="#FFF7DF" mask="url(#path-1-outside-1_133_61)"/>
</svg>
