<svg width="55" height="60" viewBox="0 0 55 60" fill="none" xmlns="http://www.w3.org/2000/svg">
<path d="M24.5 0.5C21.1863 0.5 18.5 3.40206 18.5 6.98195V19.9459H6.49999C3.18628 19.9459 0.5 22.8479 0.5 26.4279V32.9098C0.5 36.4897 3.18628 39.3917 6.49999 39.3917H18.5V52.3557C18.5 55.9356 21.1863 58.8376 24.5 58.8376H30.5C33.8137 58.8376 36.4999 55.9356 36.4999 52.3557V39.3917H48.5001C51.8138 39.3917 54.5 36.4897 54.5 32.9098V26.4279C54.5 22.8479 51.8138 19.9459 48.5001 19.9459H36.4999V6.98195C36.4999 3.40206 33.8137 0.5 30.5 0.5H24.5Z" fill="#9E4325" stroke="#9E4325" stroke-linecap="round" stroke-linejoin="round"/>
</svg>
