<svg width="109" height="136" viewBox="0 0 109 136" fill="none" xmlns="http://www.w3.org/2000/svg">
<path d="M29.5 18.4169H17C10.0964 18.4169 4.5 24.0344 4.5 30.9641V118.794C4.5 125.724 10.0964 131.341 17 131.341H92C98.9037 131.341 104.5 125.724 104.5 118.794V30.9641C104.5 24.0345 98.9037 18.4169 92 18.4169H79.5M29.5 18.4169V24.6905C29.5 31.6201 35.0964 37.2377 42 37.2377H67C73.9037 37.2377 79.5 31.6201 79.5 24.6905V18.4169M29.5 18.4169C29.5 13.2197 33.6973 9.00659 38.875 9.00659H41.8055C41.9317 9.00659 42.0544 8.96543 42.1556 8.88939L43.6956 7.72998C49.9438 3.02623 58.655 3.5061 64.3525 8.86788C64.4475 8.95696 64.5725 9.00659 64.7019 9.00659H68.7506C74.6875 9.00659 79.5 12.4579 79.5 18.4169M29.5 81.1526H40.6111L47.5556 62.3319L60.75 99.9734L69.0831 81.1526H79.5" stroke="#FFF7DF" stroke-width="9" stroke-linecap="round" stroke-linejoin="round"/>
</svg>
