<svg width="119" height="146" viewBox="0 0 119 146" fill="none" xmlns="http://www.w3.org/2000/svg">
<path d="M90.0556 141.329V133.28C90.0556 124.389 84.5837 117.182 77.8333 117.182M77.8333 117.182H41.1667M77.8333 117.182H102.278C109.028 117.182 114.5 109.976 114.5 101.085V20.5975C114.5 11.7071 109.028 4.5 102.278 4.5H16.7222C9.97207 4.5 4.5 11.7071 4.5 20.5975V101.085C4.5 109.976 9.97207 117.182 16.7222 117.182H41.1667M28.9444 141.329V133.28C28.9444 124.389 34.4165 117.182 41.1667 117.182M28.9444 60.8412H45.9198L52.7099 36.695L65.6111 84.9875L73.7591 60.8412H90.0556" stroke="#FFF7DF" stroke-width="9" stroke-linecap="round" stroke-linejoin="round"/>
</svg>
