<svg width="105" height="132" viewBox="0 0 105 132" fill="none" xmlns="http://www.w3.org/2000/svg">
<path d="M34.5 35.2116H70.5M34.5 35.2116C17.9315 35.2116 4.5 48.9616 4.5 65.9231V116.426C4.5 122.458 10.6401 127.346 18.2143 127.346H86.7858C94.3602 127.346 100.5 122.458 100.5 116.426V65.9231C100.5 48.9616 87.0684 35.2116 70.5 35.2116M34.5 35.2116H13.5C11.8432 35.2116 10.5 33.8365 10.5 32.1404V16.7846C10.5 10 15.8726 4.5 22.5 4.5H82.5C89.1276 4.5 94.5 10 94.5 16.7846V32.1404C94.5 33.8365 93.1566 35.2116 91.5 35.2116H70.5M52.5 65.9231V84.3501M52.5 84.3501V102.777M52.5 84.3501H70.5M52.5 84.3501H34.5" stroke="#FFF7DF" stroke-width="9" stroke-miterlimit="2.20439" stroke-linecap="square"/>
</svg>
